M48
;Layer_Color=9474304
;FILE_FORMAT=2:5
INCH
;TYPE=PLATED
T1F00S00C0.01181
T2F00S00C0.03543
T3F00S00C0.03937
;TYPE=NON_PLATED
T5F00S00C0.11811
%
T01
X0295275Y0354331
X0307086
X0301181Y0366142
X0307086Y0377953
X0295275
X0301181Y0389764
X0307086Y0401575
X0295275
Y0425197
X0307086
X0301181Y0437008
X0312992
X0324803
X0336614
X0341339Y0448819
X0342520Y0425197
X0354331
Y0401575
X0366142
X0372047Y0413386
X0395669
X0403110Y0428189
X0407717Y0428858
X0410945Y0428819
X0412716Y0431653
X0405354Y0431850
X0398858Y0435236
X0393386Y0438268
X0389449Y0438307
X0385669Y0438268
X0381142
X0398661Y0444882
X0403109Y0440944
X0405079Y0449646
X0434094Y0441890
X0439488Y0441732
X0438386Y0433622
X0441890Y0425765
X0429173Y0429252
X0417992Y0421772
X0449055Y0411378
X0449252Y0406535
X0450039Y0396575
X0454724Y0389764
X0453386Y0379055
X0460630Y0377953
X0450157Y0373465
X0454724Y0366142
X0453150Y0357874
X0449331Y0352362
X0442913Y0366142
X0431102
X0395669
X0383858
X0372047
X0360236
X0348425
X0336614
X0324803
X0327087Y0372953
X0330709Y0377953
X0342520
X0354331
X0366142
X0377953
X0391024Y0377677
X0402047Y0377598
X0403819Y0387008
X0372047Y0389764
X0360236
X0348425
X0336614
X0334134Y0397795
X0330709Y0401575
X0327087Y0396772
X0318898Y0401575
X0312992Y0389764
Y0366142
X0318898Y0354331
X0330709
X0342520
X0354331
X0366142
X0377953
X0389764
X0401575
X0462087Y0360669
X0463386Y0397756
X0460630Y0401575
X0468425Y0406811
X0467125Y0409487
X0342520Y0401575
X0336614Y0413386
X0318898Y0425197
X0478346Y0437008
X0490157
X0488779Y0443937
X0513779Y0437008
X0507205Y0416221
X0499823Y0416398
X0490157Y0413386
X0484252Y0401575
X0490157Y0389764
X0478346
X0477913Y0374252
X0479251Y0368070
X0478819Y0364764
X0494685Y0366024
X0501968Y0366142
X0513779
X0525590
X0531496Y0377953
X0543307
X0555118
X0561023Y0389764
X0549212
Y0366142
X0561023
X0572834
X0584646
X0596456
X0608267
X0614173Y0377953
X0603122Y0390421
X0596456Y0389764
X0590551Y0401575
Y0377953
Y0354331
X0602362
X0614173
X0578740
X0566929
X0555118
X0519685
Y0377953
X0525590Y0389764
X0507874Y0401575
X0496063Y0377953
X0484252
X0531496Y0425197
X0543307
X0557480Y0407835
X0562205Y0407165
X0566929Y0401575
X0578740Y0425197
X0589173Y0424409
X0609370Y0423189
X0608267Y0437008
X0620079
X0631890
X0625984Y0425197
Y0354331
T02
X0462598Y0350118
Y0432244
X0458465Y0444567
X0468465
X0448465Y0444606
X0478504
X0482598Y0432244
X0472598
X0492598
X0502598
X0512598
X0522598
X0532598
X0542598
X0552598Y0432205
X0562598Y0432244
X0572598
X0582598
X0592598
X0602598
X0612598
X0611575Y0445472
X0621575
X0601575
X0591575
X0572598Y0350118
X0562598
X0552598
X0542598
X0532598
X0522598
X0512598
X0502598
X0492598
X0482598
X0472598
T03
X0516850Y0381850
Y0391850
X0516811Y0401850
T05
X0391339Y0398898
X0537008Y0398819
M30
