G04*
G04 #@! TF.GenerationSoftware,Altium Limited,Altium Designer,18.1.9 (240)*
G04*
G04 Layer_Color=32896*
%FSAX25Y25*%
%MOIN*%
G70*
G01*
G75*
%ADD11C,0.00787*%
%ADD12C,0.00591*%
%ADD31C,0.01000*%
%ADD53C,0.00984*%
%ADD54C,0.00709*%
%ADD55R,0.19173X0.12520*%
D11*
X0586575Y0440472D02*
Y0450472D01*
Y0440472D02*
X0626575D01*
X0586575Y0450472D02*
X0626575D01*
Y0440472D02*
Y0450472D01*
X0575197Y0416291D02*
X0620118D01*
X0575098Y0361842D02*
X0620079D01*
X0630551Y0409961D02*
Y0413268D01*
Y0367284D02*
Y0375197D01*
X0575079Y0361862D02*
Y0367953D01*
Y0361862D02*
X0575098Y0361842D01*
X0575157Y0374095D02*
Y0377008D01*
X0575118Y0388976D02*
Y0396339D01*
X0575197Y0408347D02*
Y0416291D01*
X0455827Y0413701D02*
X0522756D01*
Y0370000D02*
Y0413701D01*
X0455827Y0370000D02*
X0522756D01*
X0455827D02*
Y0413701D01*
X0413701Y0422795D02*
X0424764D01*
Y0420236D02*
Y0422795D01*
Y0420236D02*
X0434331D01*
Y0422717D01*
X0445118D01*
X0413701Y0344646D02*
Y0422795D01*
Y0344646D02*
X0445039D01*
X0445118Y0344724D01*
Y0422717D01*
D12*
X0533779Y0378307D02*
X0531943D01*
X0532861Y0379225D02*
Y0377388D01*
X0531025Y0376929D02*
X0530106D01*
X0530565D01*
Y0379684D01*
X0531025Y0379225D01*
X0526892Y0376929D02*
X0528729D01*
X0526892Y0378766D01*
Y0379225D01*
X0527351Y0379684D01*
X0528269D01*
X0528729Y0379225D01*
X0525974Y0379684D02*
Y0377848D01*
X0525055Y0376929D01*
X0524137Y0377848D01*
Y0379684D01*
X0532126Y0413700D02*
X0530289D01*
X0531208Y0414619D02*
Y0412782D01*
X0527534Y0415078D02*
X0529371D01*
Y0413700D01*
X0528453Y0414159D01*
X0527993D01*
X0527534Y0413700D01*
Y0412782D01*
X0527993Y0412323D01*
X0528912D01*
X0529371Y0412782D01*
X0526616Y0415078D02*
Y0413241D01*
X0525698Y0412323D01*
X0524779Y0413241D01*
Y0415078D01*
X0529896Y0384816D02*
X0530355Y0385275D01*
X0531273D01*
X0531732Y0384816D01*
Y0382979D01*
X0531273Y0382520D01*
X0530355D01*
X0529896Y0382979D01*
Y0383897D01*
X0530814D01*
X0528977Y0382520D02*
Y0385275D01*
X0527141Y0382520D01*
Y0385275D01*
X0526222D02*
Y0382520D01*
X0524845D01*
X0524386Y0382979D01*
Y0384816D01*
X0524845Y0385275D01*
X0526222D01*
X0629370Y0442244D02*
X0632125D01*
Y0443622D01*
X0631666Y0444081D01*
X0630748D01*
X0630288Y0443622D01*
Y0442244D01*
X0629370Y0446836D02*
Y0444999D01*
X0631207Y0446836D01*
X0631666D01*
X0632125Y0446377D01*
Y0445458D01*
X0631666Y0444999D01*
X0418701Y0424331D02*
Y0427086D01*
X0417323D01*
X0416864Y0426627D01*
Y0425708D01*
X0417323Y0425249D01*
X0418701D01*
X0415946Y0424331D02*
X0415027D01*
X0415487D01*
Y0427086D01*
X0415946Y0426627D01*
X0470354Y0418306D02*
Y0416010D01*
X0469895Y0415551D01*
X0468977D01*
X0468518Y0416010D01*
Y0418306D01*
X0467599Y0415551D02*
X0466681D01*
X0467140D01*
Y0418306D01*
X0467599Y0417847D01*
X0579370Y0420629D02*
Y0418333D01*
X0578911Y0417874D01*
X0577993D01*
X0577533Y0418333D01*
Y0420629D01*
X0576615Y0420170D02*
X0576156Y0420629D01*
X0575238D01*
X0574778Y0420170D01*
Y0419711D01*
X0575238Y0419251D01*
X0575697D01*
X0575238D01*
X0574778Y0418792D01*
Y0418333D01*
X0575238Y0417874D01*
X0576156D01*
X0576615Y0418333D01*
D31*
X0526299Y0373543D02*
G03*
X0526299Y0373543I-0000394J0000000D01*
G01*
X0448665Y0421417D02*
G03*
X0448665Y0421417I-0000240J0000000D01*
G01*
D53*
X0324882Y0438740D02*
Y0446612D01*
X0319634Y0438740D01*
Y0446612D01*
X0315699Y0438740D02*
X0313075D01*
X0311763Y0440052D01*
Y0442676D01*
X0313075Y0443988D01*
X0315699D01*
X0317010Y0442676D01*
Y0440052D01*
X0315699Y0438740D01*
X0388150Y0418200D02*
X0385526Y0412953D01*
X0382902Y0418200D01*
X0380278Y0419512D02*
X0378966Y0420824D01*
X0376342D01*
X0375030Y0419512D01*
Y0414265D01*
X0376342Y0412953D01*
X0378966D01*
X0380278Y0414265D01*
Y0419512D01*
X0372407Y0412953D02*
Y0414265D01*
X0371095D01*
Y0412953D01*
X0372407D01*
X0360599D02*
X0365847D01*
X0360599Y0418200D01*
Y0419512D01*
X0361911Y0420824D01*
X0364535D01*
X0365847Y0419512D01*
X0382784Y0433068D02*
X0388032D01*
Y0429133D01*
X0385408D01*
X0388032D01*
Y0425197D01*
X0380160Y0430444D02*
Y0425197D01*
Y0427821D01*
X0378848Y0429133D01*
X0377536Y0430444D01*
X0376224D01*
X0370977Y0425197D02*
X0368353D01*
X0367041Y0426509D01*
Y0429133D01*
X0368353Y0430444D01*
X0370977D01*
X0372288Y0429133D01*
Y0426509D01*
X0370977Y0425197D01*
X0364417D02*
Y0430444D01*
X0360481D01*
X0359169Y0429133D01*
Y0425197D01*
X0355234Y0431756D02*
Y0430444D01*
X0356546D01*
X0353922D01*
X0355234D01*
Y0426509D01*
X0353922Y0425197D01*
X0349986Y0429133D02*
X0344738D01*
X0342114Y0425197D02*
Y0433068D01*
X0338179D01*
X0336867Y0431756D01*
Y0429133D01*
X0338179Y0427821D01*
X0342114D01*
X0328995Y0431756D02*
X0330307Y0433068D01*
X0332931D01*
X0334243Y0431756D01*
Y0426509D01*
X0332931Y0425197D01*
X0330307D01*
X0328995Y0426509D01*
X0326372Y0433068D02*
Y0425197D01*
X0322436D01*
X0321124Y0426509D01*
Y0427821D01*
X0322436Y0429133D01*
X0326372D01*
X0322436D01*
X0321124Y0430444D01*
Y0431756D01*
X0322436Y0433068D01*
X0326372D01*
X0387756Y0446848D02*
X0385132D01*
X0386444D01*
Y0438976D01*
X0387756D01*
X0385132D01*
X0381196D02*
Y0446848D01*
X0377261D01*
X0375949Y0445536D01*
Y0442912D01*
X0377261Y0441600D01*
X0381196D01*
X0378573D02*
X0375949Y0438976D01*
X0373325D02*
Y0446848D01*
X0368077Y0438976D01*
Y0446848D01*
X0365453Y0438976D02*
Y0444224D01*
X0362830Y0446848D01*
X0360206Y0444224D01*
Y0438976D01*
Y0442912D01*
X0365453D01*
X0352334Y0445536D02*
X0353646Y0446848D01*
X0356270D01*
X0357582Y0445536D01*
Y0444224D01*
X0356270Y0442912D01*
X0353646D01*
X0352334Y0441600D01*
Y0440288D01*
X0353646Y0438976D01*
X0356270D01*
X0357582Y0440288D01*
X0349710Y0438976D02*
Y0440288D01*
X0348398D01*
Y0438976D01*
X0349710D01*
X0339215D02*
X0341839D01*
X0343151Y0440288D01*
Y0442912D01*
X0341839Y0444224D01*
X0339215D01*
X0337903Y0442912D01*
Y0441600D01*
X0343151D01*
X0335279Y0444224D02*
Y0440288D01*
X0333967Y0438976D01*
X0330032D01*
Y0444224D01*
D54*
X0453898Y0349448D02*
X0454489Y0350038D01*
X0455669D01*
X0456260Y0349448D01*
Y0347086D01*
X0455669Y0346496D01*
X0454489D01*
X0453898Y0347086D01*
Y0348267D01*
X0455079D01*
X0452718Y0346496D02*
Y0350038D01*
X0450356Y0346496D01*
Y0350038D01*
X0449176D02*
Y0346496D01*
X0447404D01*
X0446814Y0347086D01*
Y0349448D01*
X0447404Y0350038D01*
X0449176D01*
X0406300Y0357873D02*
X0406890Y0358463D01*
X0408071D01*
X0408661Y0357873D01*
Y0355512D01*
X0408071Y0354921D01*
X0406890D01*
X0406300Y0355512D01*
Y0356692D01*
X0407481D01*
X0405119Y0354921D02*
Y0358463D01*
X0402758Y0354921D01*
Y0358463D01*
X0401577D02*
Y0354921D01*
X0399806D01*
X0399216Y0355512D01*
Y0357873D01*
X0399806Y0358463D01*
X0401577D01*
X0411417Y0418031D02*
X0409056D01*
X0410237Y0419212D02*
Y0416850D01*
X0407875Y0416260D02*
X0406694D01*
X0407285D01*
Y0419802D01*
X0407875Y0419212D01*
X0402562Y0416260D02*
X0404923D01*
X0402562Y0418621D01*
Y0419212D01*
X0403152Y0419802D01*
X0404333D01*
X0404923Y0419212D01*
X0401381Y0419802D02*
Y0417441D01*
X0400201Y0416260D01*
X0399020Y0417441D01*
Y0419802D01*
X0409135Y0410589D02*
X0411496D01*
Y0408818D01*
X0410315D01*
X0411496D01*
Y0407047D01*
X0407954D02*
Y0409409D01*
X0406773Y0410589D01*
X0405592Y0409409D01*
Y0407047D01*
Y0408818D01*
X0407954D01*
X0404412Y0407047D02*
Y0410589D01*
X0402050Y0407047D01*
Y0410589D01*
X0405041Y0400119D02*
Y0402480D01*
X0408583D01*
Y0400119D01*
X0406812Y0402480D02*
Y0401300D01*
X0409173Y0398938D02*
Y0396577D01*
X0405631Y0393035D02*
X0405041Y0393625D01*
Y0394806D01*
X0405631Y0395396D01*
X0406221D01*
X0406812Y0394806D01*
Y0393625D01*
X0407402Y0393035D01*
X0407992D01*
X0408583Y0393625D01*
Y0394806D01*
X0407992Y0395396D01*
X0405041Y0391854D02*
X0408583D01*
X0407402Y0390673D01*
X0408583Y0389492D01*
X0405041D01*
X0408583Y0388312D02*
Y0387131D01*
Y0387721D01*
X0405041D01*
X0405631Y0388312D01*
X0407560Y0384960D02*
X0409921D01*
Y0381417D01*
X0407560D01*
X0409921Y0383188D02*
X0408741D01*
X0406379Y0380827D02*
X0404018D01*
X0400476Y0384369D02*
X0401066Y0384960D01*
X0402247D01*
X0402837Y0384369D01*
Y0383779D01*
X0402247Y0383188D01*
X0401066D01*
X0400476Y0382598D01*
Y0382008D01*
X0401066Y0381417D01*
X0402247D01*
X0402837Y0382008D01*
X0399295Y0384960D02*
Y0381417D01*
X0398114Y0382598D01*
X0396933Y0381417D01*
Y0384960D01*
X0393391Y0381417D02*
X0395753D01*
X0393391Y0383779D01*
Y0384369D01*
X0393982Y0384960D01*
X0395162D01*
X0395753Y0384369D01*
X0407639Y0375786D02*
X0410000D01*
Y0372244D01*
X0407639D01*
X0410000Y0374015D02*
X0408819D01*
X0406458Y0371654D02*
X0404096D01*
X0400554Y0375196D02*
X0401145Y0375786D01*
X0402325D01*
X0402916Y0375196D01*
Y0374605D01*
X0402325Y0374015D01*
X0401145D01*
X0400554Y0373425D01*
Y0372834D01*
X0401145Y0372244D01*
X0402325D01*
X0402916Y0372834D01*
X0399374Y0375786D02*
Y0372244D01*
X0398193Y0373425D01*
X0397012Y0372244D01*
Y0375786D01*
X0395831Y0375196D02*
X0395241Y0375786D01*
X0394060D01*
X0393470Y0375196D01*
Y0374605D01*
X0394060Y0374015D01*
X0394651D01*
X0394060D01*
X0393470Y0373425D01*
Y0372834D01*
X0394060Y0372244D01*
X0395241D01*
X0395831Y0372834D01*
X0407009Y0367322D02*
X0409370D01*
Y0363779D01*
X0407009D01*
X0409370Y0365551D02*
X0408189D01*
X0405828Y0363189D02*
X0403467D01*
X0399924Y0366731D02*
X0400515Y0367322D01*
X0401695D01*
X0402286Y0366731D01*
Y0366141D01*
X0401695Y0365551D01*
X0400515D01*
X0399924Y0364960D01*
Y0364370D01*
X0400515Y0363779D01*
X0401695D01*
X0402286Y0364370D01*
X0398744Y0367322D02*
Y0363779D01*
X0397563Y0364960D01*
X0396382Y0363779D01*
Y0367322D01*
X0393430Y0363779D02*
Y0367322D01*
X0395201Y0365551D01*
X0392840D01*
X0459449Y0360314D02*
Y0356772D01*
X0457678D01*
X0457087Y0357362D01*
Y0359723D01*
X0457678Y0360314D01*
X0459449D01*
X0455907D02*
X0454726D01*
X0455316D01*
Y0356772D01*
X0455907D01*
X0454726D01*
X0452955D02*
Y0360314D01*
X0451184D01*
X0450593Y0359723D01*
Y0358543D01*
X0451184Y0357952D01*
X0452955D01*
X0451774D02*
X0450593Y0356772D01*
X0447051D02*
X0449413D01*
X0447051Y0359133D01*
Y0359723D01*
X0447642Y0360314D01*
X0448822D01*
X0449413Y0359723D01*
X0458386Y0367086D02*
Y0363543D01*
X0456615D01*
X0456024Y0364134D01*
Y0366495D01*
X0456615Y0367086D01*
X0458386D01*
X0454844D02*
X0453663D01*
X0454253D01*
Y0363543D01*
X0454844D01*
X0453663D01*
X0451892D02*
Y0367086D01*
X0450121D01*
X0449530Y0366495D01*
Y0365314D01*
X0450121Y0364724D01*
X0451892D01*
X0450711D02*
X0449530Y0363543D01*
X0448350D02*
X0447169D01*
X0447759D01*
Y0367086D01*
X0448350Y0366495D01*
X0447442Y0384371D02*
X0446851Y0384961D01*
Y0386142D01*
X0447442Y0386732D01*
X0448032D01*
X0448623Y0386142D01*
Y0384961D01*
X0449213Y0384371D01*
X0449803D01*
X0450394Y0384961D01*
Y0386142D01*
X0449803Y0386732D01*
X0450394Y0383190D02*
Y0382009D01*
Y0382600D01*
X0446851D01*
Y0383190D01*
X0450394Y0378467D02*
Y0379648D01*
X0449803Y0380238D01*
X0448623D01*
X0448032Y0379648D01*
Y0378467D01*
X0448623Y0377877D01*
X0449213D01*
Y0380238D01*
X0450394Y0374925D02*
Y0376106D01*
X0449803Y0376696D01*
X0448623D01*
X0448032Y0376106D01*
Y0374925D01*
X0448623Y0374335D01*
X0449213D01*
Y0376696D01*
X0451574Y0373154D02*
X0448032D01*
Y0371383D01*
X0448623Y0370793D01*
X0449803D01*
X0450394Y0371383D01*
Y0373154D01*
X0447560Y0399725D02*
X0446970Y0400316D01*
Y0401496D01*
X0447560Y0402087D01*
X0448150D01*
X0448741Y0401496D01*
Y0400316D01*
X0449331Y0399725D01*
X0449922D01*
X0450512Y0400316D01*
Y0401496D01*
X0449922Y0402087D01*
X0446970Y0398545D02*
Y0396183D01*
Y0397364D01*
X0450512D01*
Y0395002D02*
X0446970D01*
Y0393231D01*
X0447560Y0392641D01*
X0448741D01*
X0449331Y0393231D01*
Y0395002D01*
X0450512Y0389099D02*
Y0391460D01*
X0448150Y0389099D01*
X0447560D01*
X0446970Y0389689D01*
Y0390870D01*
X0447560Y0391460D01*
Y0413741D02*
X0446970Y0414331D01*
Y0415512D01*
X0447560Y0416102D01*
X0448150D01*
X0448741Y0415512D01*
Y0414331D01*
X0449331Y0413741D01*
X0449922D01*
X0450512Y0414331D01*
Y0415512D01*
X0449922Y0416102D01*
X0446970Y0412560D02*
Y0410199D01*
Y0411379D01*
X0450512D01*
Y0409018D02*
X0446970D01*
Y0407247D01*
X0447560Y0406657D01*
X0448741D01*
X0449331Y0407247D01*
Y0409018D01*
X0450512Y0405476D02*
Y0404295D01*
Y0404885D01*
X0446970D01*
X0447560Y0405476D01*
X0460276Y0421338D02*
X0457914D01*
X0459095Y0422519D02*
Y0420157D01*
X0456733Y0422519D02*
X0456143Y0423109D01*
X0454962D01*
X0454372Y0422519D01*
Y0421928D01*
X0454962Y0421338D01*
X0455553D01*
X0454962D01*
X0454372Y0420748D01*
Y0420157D01*
X0454962Y0419567D01*
X0456143D01*
X0456733Y0420157D01*
X0453191Y0423109D02*
Y0420748D01*
X0452010Y0419567D01*
X0450830Y0420748D01*
Y0423109D01*
X0449649Y0422519D02*
X0449059Y0423109D01*
X0447878D01*
X0447288Y0422519D01*
Y0421928D01*
X0447878Y0421338D01*
X0448468D01*
X0447878D01*
X0447288Y0420748D01*
Y0420157D01*
X0447878Y0419567D01*
X0449059D01*
X0449649Y0420157D01*
D55*
X0300217Y0442323D02*
D03*
M02*
