G04*
G04 #@! TF.GenerationSoftware,Altium Limited,Altium Designer,18.1.9 (240)*
G04*
G04 Layer_Color=16711935*
%FSAX25Y25*%
%MOIN*%
G70*
G01*
G75*
%ADD12C,0.00591*%
%ADD31C,0.01000*%
%ADD56C,0.00600*%
D12*
X0606221Y0404567D02*
X0608517D01*
X0608976Y0404108D01*
Y0403189D01*
X0608517Y0402730D01*
X0606221D01*
X0606680Y0401812D02*
X0606221Y0401353D01*
Y0400434D01*
X0606680Y0399975D01*
X0607140D01*
X0607599Y0400434D01*
Y0400894D01*
Y0400434D01*
X0608058Y0399975D01*
X0608517D01*
X0608976Y0400434D01*
Y0401353D01*
X0608517Y0401812D01*
D31*
X0665441Y0349701D02*
X0667441Y0343701D01*
X0669441Y0349701D01*
X0667441Y0453937D02*
X0669441Y0447937D01*
X0665441D02*
X0667441Y0453937D01*
Y0343701D02*
Y0382123D01*
Y0412315D02*
Y0453937D01*
X0632260Y0343701D02*
X0668441D01*
X0619488Y0453937D02*
X0668441D01*
X0288740Y0325472D02*
X0294740Y0327472D01*
X0288740Y0325472D02*
X0294740Y0323472D01*
X0633134D02*
X0639134Y0325472D01*
X0633134Y0327472D02*
X0639134Y0325472D01*
X0288740D02*
X0447241D01*
X0477433D02*
X0639134D01*
X0288740Y0324472D02*
Y0350575D01*
X0639134Y0324472D02*
Y0358898D01*
D56*
X0671040Y0387722D02*
Y0383723D01*
X0667041Y0387722D01*
X0666042D01*
X0665042Y0386722D01*
Y0384723D01*
X0666042Y0383723D01*
Y0389721D02*
X0665042Y0390721D01*
Y0392720D01*
X0666042Y0393720D01*
X0667041D01*
X0668041Y0392720D01*
X0669041Y0393720D01*
X0670040D01*
X0671040Y0392720D01*
Y0390721D01*
X0670040Y0389721D01*
X0669041D01*
X0668041Y0390721D01*
X0667041Y0389721D01*
X0666042D01*
X0668041Y0390721D02*
Y0392720D01*
X0671040Y0395719D02*
X0670040D01*
Y0396719D01*
X0671040D01*
Y0395719D01*
X0666042Y0400718D02*
X0665042Y0401717D01*
Y0403717D01*
X0666042Y0404716D01*
X0670040D01*
X0671040Y0403717D01*
Y0401717D01*
X0670040Y0400718D01*
X0666042D01*
Y0406716D02*
X0665042Y0407716D01*
Y0409715D01*
X0666042Y0410714D01*
X0670040D01*
X0671040Y0409715D01*
Y0407716D01*
X0670040Y0406716D01*
X0666042D01*
X0448841Y0326872D02*
X0449841Y0327871D01*
X0451840D01*
X0452840Y0326872D01*
Y0325872D01*
X0451840Y0324872D01*
X0452840Y0323873D01*
Y0322873D01*
X0451840Y0321873D01*
X0449841D01*
X0448841Y0322873D01*
Y0323873D01*
X0449841Y0324872D01*
X0448841Y0325872D01*
Y0326872D01*
X0449841Y0324872D02*
X0451840D01*
X0454839Y0322873D02*
X0455839Y0321873D01*
X0457838D01*
X0458838Y0322873D01*
Y0326872D01*
X0457838Y0327871D01*
X0455839D01*
X0454839Y0326872D01*
Y0325872D01*
X0455839Y0324872D01*
X0458838D01*
X0460838Y0321873D02*
Y0322873D01*
X0461837D01*
Y0321873D01*
X0460838D01*
X0465836Y0326872D02*
X0466835Y0327871D01*
X0468835D01*
X0469835Y0326872D01*
Y0322873D01*
X0468835Y0321873D01*
X0466835D01*
X0465836Y0322873D01*
Y0326872D01*
X0471834D02*
X0472834Y0327871D01*
X0474833D01*
X0475833Y0326872D01*
Y0322873D01*
X0474833Y0321873D01*
X0472834D01*
X0471834Y0322873D01*
Y0326872D01*
M02*
