G04*
G04 #@! TF.GenerationSoftware,Altium Limited,Altium Designer,18.1.9 (240)*
G04*
G04 Layer_Color=16711935*
%FSAX25Y25*%
%MOIN*%
G70*
G01*
G75*
%ADD25C,0.06706*%
%ADD26R,0.06706X0.06706*%
%ADD27C,0.06710*%
%ADD28C,0.06706*%
%ADD29O,0.16548X0.08674*%
%ADD30C,0.24422*%
%ADD47R,0.06312X0.11430*%
%ADD48R,0.05524X0.05524*%
%ADD49R,0.11036X0.06706*%
%ADD50R,0.11036X0.04737*%
%ADD51R,0.08674X0.03556*%
%ADD52R,0.12611X0.06706*%
D25*
X0621575Y0445472D02*
D03*
X0611575D02*
D03*
X0601575D02*
D03*
D26*
X0591575D02*
D03*
D27*
X0478504Y0444606D02*
D03*
X0468465Y0444567D02*
D03*
X0458465D02*
D03*
X0516850Y0391850D02*
D03*
Y0381850D02*
D03*
D28*
X0448465Y0444606D02*
D03*
X0462598Y0432244D02*
D03*
X0472598D02*
D03*
X0612598D02*
D03*
X0602598D02*
D03*
X0592598D02*
D03*
X0582598D02*
D03*
X0572598D02*
D03*
X0562598D02*
D03*
X0552598Y0432205D02*
D03*
X0482598Y0432244D02*
D03*
X0492598D02*
D03*
X0502598D02*
D03*
X0512598D02*
D03*
X0542598D02*
D03*
X0532598D02*
D03*
X0522598D02*
D03*
X0572598Y0350118D02*
D03*
X0562598D02*
D03*
X0552598D02*
D03*
X0542598D02*
D03*
X0532598D02*
D03*
X0522598D02*
D03*
X0512598D02*
D03*
X0502598D02*
D03*
X0492598D02*
D03*
X0482598D02*
D03*
X0472598D02*
D03*
X0462598D02*
D03*
X0516811Y0401850D02*
D03*
D29*
X0422835Y0441968D02*
D03*
X0504528D02*
D03*
D30*
X0391339Y0398898D02*
D03*
X0537008Y0398819D02*
D03*
D47*
X0578004Y0402232D02*
D03*
Y0382941D02*
D03*
D48*
X0577610Y0370933D02*
D03*
D49*
X0626035Y0363453D02*
D03*
D50*
Y0416012D02*
D03*
D51*
X0628004Y0407744D02*
D03*
Y0403413D02*
D03*
Y0399083D02*
D03*
Y0394752D02*
D03*
Y0390421D02*
D03*
Y0386091D02*
D03*
Y0381760D02*
D03*
Y0377429D02*
D03*
D52*
X0438189Y0411299D02*
D03*
Y0401299D02*
D03*
Y0391299D02*
D03*
Y0381299D02*
D03*
Y0371299D02*
D03*
Y0361299D02*
D03*
Y0351299D02*
D03*
X0420472Y0416299D02*
D03*
Y0406299D02*
D03*
Y0396299D02*
D03*
Y0386299D02*
D03*
Y0376299D02*
D03*
Y0366299D02*
D03*
Y0356299D02*
D03*
M02*
