G04*
G04 #@! TF.GenerationSoftware,Altium Limited,Altium Designer,18.1.9 (240)*
G04*
G04 Layer_Physical_Order=2*
G04 Layer_Color=16711680*
%FSAX25Y25*%
%MOIN*%
G70*
G01*
G75*
%ADD31C,0.01000*%
%ADD32C,0.03000*%
%ADD33C,0.00800*%
%ADD34C,0.05906*%
%ADD35R,0.05906X0.05906*%
%ADD36C,0.05910*%
%ADD37C,0.05906*%
%ADD38O,0.15748X0.07874*%
%ADD39C,0.23622*%
%ADD40C,0.01968*%
%ADD41R,0.05512X0.10630*%
%ADD42R,0.04724X0.04724*%
%ADD43R,0.10236X0.05906*%
%ADD44R,0.10236X0.03937*%
%ADD45R,0.07874X0.02756*%
%ADD46R,0.11811X0.05906*%
G36*
X0632433Y0452536D02*
X0633922Y0452015D01*
X0635257Y0451176D01*
X0636373Y0450061D01*
X0637212Y0448725D01*
X0637733Y0447236D01*
X0637917Y0445601D01*
Y0352037D01*
X0637733Y0350401D01*
X0637212Y0348913D01*
X0636373Y0347577D01*
X0635257Y0346462D01*
X0633922Y0345623D01*
X0632433Y0345102D01*
X0630798Y0344918D01*
X0519926D01*
X0519735Y0345380D01*
X0521052Y0346697D01*
X0521619Y0346462D01*
X0522598Y0346333D01*
X0523578Y0346462D01*
X0524491Y0346840D01*
X0525275Y0347442D01*
X0525877Y0348226D01*
X0526255Y0349138D01*
X0526384Y0350118D01*
X0526255Y0351098D01*
X0525877Y0352011D01*
X0525275Y0352795D01*
X0524491Y0353396D01*
X0523578Y0353774D01*
X0522598Y0353903D01*
X0521619Y0353774D01*
X0520706Y0353396D01*
X0519922Y0352795D01*
X0519320Y0352011D01*
X0518942Y0351098D01*
X0518813Y0350118D01*
X0518942Y0349138D01*
X0519177Y0348571D01*
X0517326Y0346720D01*
X0515156D01*
X0514986Y0347220D01*
X0515275Y0347442D01*
X0515876Y0348226D01*
X0516255Y0349138D01*
X0516384Y0350118D01*
X0516255Y0351098D01*
X0515876Y0352011D01*
X0515275Y0352795D01*
X0514491Y0353396D01*
X0513578Y0353774D01*
X0512598Y0353903D01*
X0511619Y0353774D01*
X0510706Y0353396D01*
X0510158Y0352976D01*
X0505197Y0357937D01*
X0505389Y0358399D01*
X0532443D01*
X0539177Y0351665D01*
X0538942Y0351098D01*
X0538813Y0350118D01*
X0538942Y0349138D01*
X0539320Y0348226D01*
X0539922Y0347442D01*
X0540706Y0346840D01*
X0541619Y0346462D01*
X0542598Y0346333D01*
X0543578Y0346462D01*
X0544491Y0346840D01*
X0545275Y0347442D01*
X0545877Y0348226D01*
X0546255Y0349138D01*
X0546384Y0350118D01*
X0546255Y0351098D01*
X0545877Y0352011D01*
X0545275Y0352795D01*
X0544491Y0353396D01*
X0543578Y0353774D01*
X0542598Y0353903D01*
X0541619Y0353774D01*
X0541052Y0353539D01*
X0533929Y0360662D01*
X0533499Y0360949D01*
X0532992Y0361050D01*
X0496494D01*
X0494298Y0363246D01*
X0494544Y0363706D01*
X0494685Y0363679D01*
X0495582Y0363857D01*
X0496343Y0364365D01*
X0506331Y0374353D01*
X0506975Y0374289D01*
X0507239Y0373893D01*
X0510980Y0370153D01*
X0510980Y0370153D01*
X0511740Y0369644D01*
X0512638Y0369466D01*
X0529934D01*
X0548868Y0350532D01*
X0548813Y0350118D01*
X0548942Y0349138D01*
X0549320Y0348226D01*
X0549922Y0347442D01*
X0550706Y0346840D01*
X0551619Y0346462D01*
X0552598Y0346333D01*
X0553578Y0346462D01*
X0554491Y0346840D01*
X0555275Y0347442D01*
X0555876Y0348226D01*
X0556255Y0349138D01*
X0556384Y0350118D01*
X0556255Y0351098D01*
X0555876Y0352011D01*
X0555275Y0352795D01*
X0554491Y0353396D01*
X0553578Y0353774D01*
X0552598Y0353903D01*
X0552184Y0353849D01*
X0532564Y0373469D01*
X0531803Y0373978D01*
X0530905Y0374156D01*
X0513609D01*
X0511243Y0376522D01*
Y0377244D01*
Y0396155D01*
X0514207Y0399119D01*
X0514919Y0398572D01*
X0515831Y0398194D01*
X0516811Y0398065D01*
X0517791Y0398194D01*
X0518704Y0398572D01*
X0519487Y0399174D01*
X0520089Y0399958D01*
X0520467Y0400871D01*
X0520596Y0401850D01*
X0520467Y0402830D01*
X0520089Y0403743D01*
X0519487Y0404527D01*
X0518704Y0405128D01*
X0517791Y0405507D01*
X0516811Y0405635D01*
X0515831Y0405507D01*
X0514919Y0405128D01*
X0514135Y0404527D01*
X0513880Y0404195D01*
X0513622D01*
X0512725Y0404017D01*
X0511964Y0403509D01*
X0507239Y0398784D01*
X0506731Y0398023D01*
X0506553Y0397126D01*
Y0379589D01*
X0505905D01*
X0505008Y0379411D01*
X0504247Y0378902D01*
X0493027Y0367682D01*
X0492519Y0366921D01*
X0492340Y0366024D01*
X0492368Y0365883D01*
X0491907Y0365637D01*
X0451061Y0406483D01*
X0451071Y0406535D01*
X0450933Y0407232D01*
X0450538Y0407822D01*
X0449948Y0408216D01*
X0449252Y0408355D01*
X0448556Y0408216D01*
X0447966Y0407822D01*
X0447965Y0407822D01*
X0444895D01*
Y0409033D01*
X0449055D01*
X0449953Y0409211D01*
X0450713Y0409720D01*
X0451222Y0410480D01*
X0451400Y0411378D01*
X0451222Y0412275D01*
X0450713Y0413036D01*
X0449953Y0413545D01*
X0449055Y0413723D01*
X0444895D01*
Y0415052D01*
X0431484D01*
Y0407822D01*
X0427178D01*
Y0410052D01*
X0413767D01*
Y0402547D01*
X0427178D01*
Y0405171D01*
X0431033D01*
X0431484Y0405052D01*
Y0397900D01*
X0427178D01*
Y0400052D01*
X0413767D01*
Y0392547D01*
X0427178D01*
Y0395249D01*
X0431065D01*
X0431483Y0395052D01*
X0431484Y0394749D01*
Y0387546D01*
X0443020D01*
X0445099Y0385467D01*
X0444807Y0385052D01*
X0431484D01*
Y0377547D01*
X0444424D01*
X0448366Y0373604D01*
X0448338Y0373465D01*
X0448477Y0372768D01*
X0448581Y0372613D01*
X0448313Y0372113D01*
X0444895D01*
Y0375052D01*
X0431484D01*
Y0367547D01*
X0444895D01*
Y0369462D01*
X0477434D01*
X0477701Y0368962D01*
X0477570Y0368766D01*
X0477432Y0368070D01*
X0477524Y0367609D01*
X0477192Y0367109D01*
X0458347D01*
X0458347Y0367109D01*
X0457449Y0366930D01*
X0456688Y0366422D01*
X0456688Y0366422D01*
X0451491Y0361225D01*
X0450983Y0360464D01*
X0450805Y0359567D01*
Y0357879D01*
X0450714Y0357791D01*
X0450370Y0357607D01*
X0445544Y0362433D01*
X0445114Y0362721D01*
X0444895Y0362764D01*
Y0365052D01*
X0431484D01*
Y0357546D01*
X0444895D01*
Y0358680D01*
X0445356Y0358872D01*
X0449021Y0355207D01*
X0448813Y0354707D01*
X0444895D01*
Y0355052D01*
X0431484D01*
Y0347547D01*
X0444895D01*
Y0350017D01*
X0449331D01*
X0450228Y0350196D01*
X0450989Y0350704D01*
X0451497Y0351465D01*
X0451590Y0351931D01*
X0452133Y0352095D01*
X0458848Y0345380D01*
X0458657Y0344918D01*
X0297076D01*
X0295441Y0345102D01*
X0293952Y0345623D01*
X0292617Y0346462D01*
X0291501Y0347577D01*
X0290662Y0348913D01*
X0290142Y0350401D01*
X0289957Y0352037D01*
Y0445601D01*
X0290142Y0447236D01*
X0290662Y0448725D01*
X0291501Y0450061D01*
X0292617Y0451176D01*
X0293952Y0452015D01*
X0295441Y0452536D01*
X0297076Y0452720D01*
X0474036D01*
X0474243Y0452220D01*
X0470013Y0447990D01*
X0469445Y0448225D01*
X0468465Y0448354D01*
X0467484Y0448225D01*
X0466916Y0447990D01*
X0464323Y0450583D01*
X0463893Y0450870D01*
X0463386Y0450971D01*
X0406307D01*
X0405775Y0451326D01*
X0405079Y0451465D01*
X0404383Y0451326D01*
X0403792Y0450932D01*
X0403398Y0450342D01*
X0403260Y0449646D01*
X0403398Y0448949D01*
X0403792Y0448359D01*
X0404383Y0447965D01*
X0405079Y0447826D01*
X0405775Y0447965D01*
X0406307Y0448320D01*
X0446355D01*
X0446439Y0448151D01*
X0446489Y0447820D01*
X0445788Y0447283D01*
X0445187Y0446499D01*
X0444808Y0445586D01*
X0444679Y0444606D01*
X0444808Y0443627D01*
X0445187Y0442714D01*
X0445788Y0441930D01*
X0446572Y0441328D01*
X0447485Y0440950D01*
X0448465Y0440821D01*
X0449444Y0440950D01*
X0450357Y0441328D01*
X0451141Y0441930D01*
X0451743Y0442714D01*
X0452121Y0443627D01*
X0452250Y0444606D01*
X0452121Y0445586D01*
X0451743Y0446499D01*
X0451141Y0447283D01*
X0450441Y0447820D01*
X0450490Y0448151D01*
X0450574Y0448320D01*
X0462837D01*
X0465042Y0446115D01*
X0464807Y0445547D01*
X0464677Y0444567D01*
X0464807Y0443587D01*
X0465185Y0442673D01*
X0465787Y0441889D01*
X0466571Y0441287D01*
X0467484Y0440909D01*
X0468465Y0440780D01*
X0469445Y0440909D01*
X0470358Y0441287D01*
X0471142Y0441889D01*
X0471744Y0442673D01*
X0472123Y0443587D01*
X0472252Y0444567D01*
X0472123Y0445547D01*
X0471887Y0446115D01*
X0475972Y0450200D01*
X0481570D01*
X0481761Y0449738D01*
X0480052Y0448029D01*
X0479484Y0448264D01*
X0478504Y0448393D01*
X0477524Y0448264D01*
X0476610Y0447886D01*
X0475826Y0447284D01*
X0475224Y0446500D01*
X0474846Y0445586D01*
X0474717Y0444606D01*
X0474846Y0443626D01*
X0475081Y0443058D01*
X0471065Y0439042D01*
X0434173D01*
X0433666Y0438941D01*
X0433236Y0438654D01*
X0431183Y0436601D01*
X0416339D01*
X0415831Y0436500D01*
X0415401Y0436213D01*
X0412647Y0433459D01*
X0412235Y0433377D01*
X0411735Y0433699D01*
Y0436631D01*
X0411642Y0437099D01*
X0411377Y0437496D01*
X0403126Y0445747D01*
X0402729Y0446012D01*
X0402260Y0446105D01*
X0399990D01*
X0399948Y0446168D01*
X0399358Y0446563D01*
X0398661Y0446701D01*
X0397965Y0446563D01*
X0397375Y0446168D01*
X0396981Y0445578D01*
X0396842Y0444882D01*
X0396981Y0444186D01*
X0397375Y0443596D01*
X0397965Y0443201D01*
X0398661Y0443063D01*
X0399358Y0443201D01*
X0399948Y0443596D01*
X0399990Y0443658D01*
X0401754D01*
X0402332Y0443080D01*
X0402214Y0442491D01*
X0401823Y0442230D01*
X0401429Y0441640D01*
X0401290Y0440944D01*
X0401429Y0440248D01*
X0401823Y0439658D01*
X0402413Y0439263D01*
X0403040Y0439139D01*
X0406471Y0435708D01*
Y0433787D01*
X0405971Y0433547D01*
X0405354Y0433670D01*
X0404658Y0433531D01*
X0404127Y0433176D01*
X0404055D01*
X0403548Y0433075D01*
X0403156Y0432813D01*
X0400664Y0435305D01*
X0400539Y0435932D01*
X0400145Y0436523D01*
X0399554Y0436917D01*
X0398858Y0437055D01*
X0398162Y0436917D01*
X0397630Y0436562D01*
X0355470D01*
X0343144Y0448888D01*
X0343019Y0449515D01*
X0342625Y0450105D01*
X0342035Y0450500D01*
X0341339Y0450638D01*
X0340642Y0450500D01*
X0340052Y0450105D01*
X0339658Y0449515D01*
X0339519Y0448819D01*
X0339658Y0448123D01*
X0340052Y0447533D01*
X0340642Y0447138D01*
X0341270Y0447013D01*
X0353984Y0434299D01*
X0354414Y0434012D01*
X0354921Y0433911D01*
X0397630D01*
X0398162Y0433556D01*
X0398789Y0433431D01*
X0401784Y0430436D01*
X0401785Y0430431D01*
Y0429417D01*
X0401430Y0428885D01*
X0401291Y0428189D01*
X0401398Y0427652D01*
X0401101Y0427152D01*
X0362165D01*
X0361658Y0427051D01*
X0361228Y0426764D01*
X0334065Y0399601D01*
X0333438Y0399476D01*
X0332847Y0399082D01*
X0332453Y0398492D01*
X0332315Y0397795D01*
X0332453Y0397099D01*
X0332847Y0396509D01*
X0333438Y0396115D01*
X0334134Y0395976D01*
X0334830Y0396115D01*
X0335420Y0396509D01*
X0335815Y0397099D01*
X0335939Y0397726D01*
X0362714Y0424501D01*
X0389139D01*
X0389330Y0424039D01*
X0373118Y0407827D01*
X0372831Y0407397D01*
X0372730Y0406890D01*
Y0390986D01*
X0372831Y0390479D01*
X0373118Y0390049D01*
X0383631Y0379535D01*
X0384062Y0379248D01*
X0384569Y0379147D01*
X0387679D01*
X0389218Y0377608D01*
X0389343Y0376981D01*
X0389737Y0376391D01*
X0390327Y0375996D01*
X0391024Y0375858D01*
X0391720Y0375996D01*
X0392310Y0376391D01*
X0392704Y0376981D01*
X0392818Y0377553D01*
X0393171Y0377726D01*
X0393328Y0377750D01*
X0405519Y0365559D01*
X0405949Y0365271D01*
X0406457Y0365171D01*
X0413767D01*
Y0362546D01*
X0427178D01*
Y0370052D01*
X0413767D01*
Y0367822D01*
X0407006D01*
X0391618Y0383210D01*
X0391188Y0383497D01*
X0390680Y0383598D01*
X0385863D01*
X0377192Y0392270D01*
Y0405606D01*
X0392487Y0420901D01*
X0412751D01*
X0413258Y0421002D01*
X0413688Y0421289D01*
X0420325Y0427926D01*
X0427425D01*
X0427576Y0427426D01*
X0427571Y0427423D01*
X0420200Y0420052D01*
X0413767D01*
Y0412546D01*
X0427178D01*
Y0420052D01*
X0427178Y0420052D01*
X0427178D01*
X0427300Y0420519D01*
X0430200Y0423420D01*
X0441890D01*
X0442787Y0423598D01*
X0443548Y0424106D01*
X0444056Y0424867D01*
X0444235Y0425765D01*
X0444056Y0426662D01*
X0443548Y0427423D01*
X0442787Y0427931D01*
X0441890Y0428110D01*
X0431086D01*
X0430899Y0428460D01*
X0430865Y0428610D01*
X0430992Y0429252D01*
X0430894Y0429749D01*
X0431208Y0430249D01*
X0434055D01*
X0434562Y0430350D01*
X0434992Y0430638D01*
X0436651Y0432297D01*
X0437158D01*
X0437690Y0431941D01*
X0438386Y0431803D01*
X0439082Y0431941D01*
X0439672Y0432336D01*
X0440067Y0432926D01*
X0440205Y0433622D01*
X0440114Y0434081D01*
X0440447Y0434581D01*
X0450710D01*
X0459299Y0425992D01*
X0459729Y0425705D01*
X0460236Y0425604D01*
X0524394D01*
X0524684Y0425104D01*
X0524666Y0425072D01*
X0524633Y0425055D01*
X0483835D01*
X0483328Y0424954D01*
X0482898Y0424666D01*
X0469044Y0410813D01*
X0468353D01*
X0467821Y0411168D01*
X0467125Y0411307D01*
X0466429Y0411168D01*
X0465839Y0410774D01*
X0465444Y0410184D01*
X0465306Y0409487D01*
X0465444Y0408791D01*
X0465839Y0408201D01*
X0466429Y0407807D01*
X0466692Y0407244D01*
X0466606Y0406811D01*
X0466745Y0406115D01*
X0467139Y0405525D01*
X0467729Y0405130D01*
X0467812Y0405114D01*
X0467958Y0404635D01*
X0462776Y0399454D01*
X0462690Y0399437D01*
X0462099Y0399042D01*
X0461705Y0398452D01*
X0461567Y0397756D01*
X0461705Y0397060D01*
X0462099Y0396469D01*
X0462690Y0396075D01*
X0463386Y0395937D01*
X0464082Y0396075D01*
X0464672Y0396469D01*
X0465067Y0397060D01*
X0465205Y0397756D01*
X0465142Y0398071D01*
X0485588Y0418516D01*
X0498950D01*
X0498966Y0418478D01*
X0499034Y0418016D01*
X0498536Y0417684D01*
X0498142Y0417094D01*
X0498004Y0416398D01*
X0498142Y0415701D01*
X0498536Y0415111D01*
X0499127Y0414717D01*
X0499823Y0414578D01*
X0500039Y0414621D01*
X0501897Y0412764D01*
X0502327Y0412476D01*
X0502835Y0412375D01*
X0542483D01*
X0564052Y0390806D01*
X0564482Y0390519D01*
X0564989Y0390418D01*
X0583456D01*
X0589879Y0383995D01*
X0590309Y0383708D01*
X0590816Y0383607D01*
X0620227D01*
X0623012Y0380823D01*
X0623267Y0380652D01*
Y0375251D01*
X0632741D01*
Y0379582D01*
Y0383913D01*
Y0388243D01*
Y0392574D01*
Y0396930D01*
X0623738D01*
X0619041Y0401626D01*
X0619233Y0402088D01*
X0623267D01*
Y0401235D01*
X0632741D01*
Y0405566D01*
Y0409922D01*
X0623267D01*
Y0404739D01*
X0618474D01*
X0610780Y0412433D01*
X0610350Y0412721D01*
X0609842Y0412821D01*
X0563110D01*
X0562603Y0412721D01*
X0562173Y0412433D01*
X0558900Y0409160D01*
X0558708D01*
X0558177Y0409515D01*
X0557480Y0409654D01*
X0556784Y0409515D01*
X0556194Y0409121D01*
X0555800Y0408531D01*
X0555661Y0407835D01*
X0555800Y0407138D01*
X0556194Y0406548D01*
X0556784Y0406154D01*
X0557480Y0406015D01*
X0558177Y0406154D01*
X0558708Y0406509D01*
X0559449D01*
X0559956Y0406610D01*
X0559983Y0406628D01*
X0560470Y0406485D01*
X0560561Y0406413D01*
X0560918Y0405879D01*
X0561509Y0405485D01*
X0562205Y0405346D01*
X0562901Y0405485D01*
X0563491Y0405879D01*
X0563885Y0406469D01*
X0564010Y0407096D01*
X0565284Y0408371D01*
X0608548D01*
X0623267Y0393652D01*
Y0392766D01*
X0603122D01*
X0602225Y0392588D01*
X0601464Y0392079D01*
X0600955Y0391319D01*
X0600777Y0390421D01*
X0600955Y0389524D01*
X0601464Y0388763D01*
X0601771Y0388558D01*
X0601619Y0388058D01*
X0592110D01*
X0585688Y0394481D01*
X0585257Y0394768D01*
X0584750Y0394869D01*
X0566284D01*
X0544714Y0416438D01*
X0544284Y0416725D01*
X0543777Y0416826D01*
X0508903D01*
X0508885Y0416917D01*
X0508491Y0417507D01*
X0507901Y0417901D01*
X0507323Y0418016D01*
X0507372Y0418516D01*
X0562834D01*
X0563341Y0418617D01*
X0563771Y0418904D01*
X0573436Y0428569D01*
X0573578Y0428588D01*
X0574491Y0428966D01*
X0575275Y0429568D01*
X0575877Y0430351D01*
X0576255Y0431264D01*
X0576384Y0432244D01*
X0576255Y0433224D01*
X0575877Y0434137D01*
X0575275Y0434921D01*
X0574491Y0435522D01*
X0573578Y0435900D01*
X0572598Y0436029D01*
X0571619Y0435900D01*
X0570706Y0435522D01*
X0569922Y0434921D01*
X0569320Y0434137D01*
X0568942Y0433224D01*
X0568813Y0432244D01*
X0568942Y0431264D01*
X0569320Y0430351D01*
X0569922Y0429568D01*
X0570053Y0429467D01*
X0570086Y0428968D01*
X0562285Y0421167D01*
X0554404D01*
X0554212Y0421629D01*
X0561302Y0428719D01*
X0561619Y0428588D01*
X0562598Y0428459D01*
X0563578Y0428588D01*
X0564491Y0428966D01*
X0565275Y0429568D01*
X0565876Y0430351D01*
X0566255Y0431264D01*
X0566384Y0432244D01*
X0566255Y0433224D01*
X0565876Y0434137D01*
X0565275Y0434921D01*
X0564491Y0435522D01*
X0563578Y0435900D01*
X0562598Y0436029D01*
X0561619Y0435900D01*
X0560706Y0435522D01*
X0559922Y0434921D01*
X0559320Y0434137D01*
X0558942Y0433224D01*
X0558813Y0432244D01*
X0558942Y0431264D01*
X0559281Y0430447D01*
X0552089Y0423255D01*
X0527672D01*
X0527481Y0423716D01*
X0532267Y0428503D01*
X0532598Y0428459D01*
X0533578Y0428588D01*
X0534491Y0428966D01*
X0535275Y0429568D01*
X0535877Y0430351D01*
X0536255Y0431264D01*
X0536384Y0432244D01*
X0536255Y0433224D01*
X0535877Y0434137D01*
X0535275Y0434921D01*
X0534491Y0435522D01*
X0533578Y0435900D01*
X0532598Y0436029D01*
X0531619Y0435900D01*
X0530706Y0435522D01*
X0529922Y0434921D01*
X0529320Y0434137D01*
X0529109Y0433626D01*
X0528609Y0433726D01*
Y0435435D01*
X0530077Y0436903D01*
X0546026D01*
X0549177Y0433751D01*
X0548942Y0433184D01*
X0548813Y0432205D01*
X0548942Y0431225D01*
X0549320Y0430312D01*
X0549922Y0429528D01*
X0550706Y0428927D01*
X0551619Y0428549D01*
X0552598Y0428420D01*
X0553578Y0428549D01*
X0554491Y0428927D01*
X0555275Y0429528D01*
X0555876Y0430312D01*
X0556255Y0431225D01*
X0556384Y0432205D01*
X0556255Y0433184D01*
X0555876Y0434097D01*
X0555275Y0434881D01*
X0554491Y0435483D01*
X0553578Y0435861D01*
X0552598Y0435990D01*
X0551619Y0435861D01*
X0551052Y0435626D01*
X0547512Y0439166D01*
X0547082Y0439453D01*
X0546575Y0439554D01*
X0529528D01*
X0529020Y0439453D01*
X0528590Y0439166D01*
X0526346Y0436922D01*
X0526059Y0436491D01*
X0525958Y0435984D01*
Y0434852D01*
X0525458Y0434682D01*
X0525275Y0434921D01*
X0524491Y0435522D01*
X0523578Y0435900D01*
X0522598Y0436029D01*
X0521619Y0435900D01*
X0520706Y0435522D01*
X0519922Y0434921D01*
X0519320Y0434137D01*
X0518942Y0433224D01*
X0518813Y0432244D01*
X0518942Y0431264D01*
X0519320Y0430351D01*
X0519922Y0429568D01*
X0520706Y0428966D01*
X0521216Y0428755D01*
X0521117Y0428255D01*
X0514080D01*
X0513980Y0428755D01*
X0514491Y0428966D01*
X0515275Y0429568D01*
X0515876Y0430351D01*
X0516255Y0431264D01*
X0516384Y0432244D01*
X0516255Y0433224D01*
X0515876Y0434137D01*
X0515275Y0434921D01*
X0514491Y0435522D01*
X0513578Y0435900D01*
X0512598Y0436029D01*
X0511619Y0435900D01*
X0510706Y0435522D01*
X0509922Y0434921D01*
X0509320Y0434137D01*
X0508942Y0433224D01*
X0508813Y0432244D01*
X0508942Y0431264D01*
X0509320Y0430351D01*
X0509922Y0429568D01*
X0510706Y0428966D01*
X0511216Y0428755D01*
X0511117Y0428255D01*
X0504080D01*
X0503980Y0428755D01*
X0504491Y0428966D01*
X0505275Y0429568D01*
X0505876Y0430351D01*
X0506255Y0431264D01*
X0506384Y0432244D01*
X0506255Y0433224D01*
X0505876Y0434137D01*
X0505275Y0434921D01*
X0504491Y0435522D01*
X0503578Y0435900D01*
X0502598Y0436029D01*
X0501619Y0435900D01*
X0500706Y0435522D01*
X0499922Y0434921D01*
X0499320Y0434137D01*
X0498942Y0433224D01*
X0498813Y0432244D01*
X0498942Y0431264D01*
X0499320Y0430351D01*
X0499922Y0429568D01*
X0500706Y0428966D01*
X0501216Y0428755D01*
X0501117Y0428255D01*
X0494080D01*
X0493980Y0428755D01*
X0494491Y0428966D01*
X0495275Y0429568D01*
X0495877Y0430351D01*
X0496255Y0431264D01*
X0496384Y0432244D01*
X0496255Y0433224D01*
X0495877Y0434137D01*
X0495275Y0434921D01*
X0494491Y0435522D01*
X0493578Y0435900D01*
X0492598Y0436029D01*
X0491619Y0435900D01*
X0490706Y0435522D01*
X0489922Y0434921D01*
X0489320Y0434137D01*
X0488942Y0433224D01*
X0488813Y0432244D01*
X0488942Y0431264D01*
X0489320Y0430351D01*
X0489922Y0429568D01*
X0490706Y0428966D01*
X0491216Y0428755D01*
X0491117Y0428255D01*
X0484080D01*
X0483980Y0428755D01*
X0484491Y0428966D01*
X0485275Y0429568D01*
X0485877Y0430351D01*
X0486255Y0431264D01*
X0486384Y0432244D01*
X0486255Y0433224D01*
X0485877Y0434137D01*
X0485275Y0434921D01*
X0484491Y0435522D01*
X0483578Y0435900D01*
X0482598Y0436029D01*
X0481619Y0435900D01*
X0480706Y0435522D01*
X0479922Y0434921D01*
X0479320Y0434137D01*
X0478942Y0433224D01*
X0478813Y0432244D01*
X0478942Y0431264D01*
X0479320Y0430351D01*
X0479922Y0429568D01*
X0480706Y0428966D01*
X0481216Y0428755D01*
X0481117Y0428255D01*
X0474080D01*
X0473980Y0428755D01*
X0474491Y0428966D01*
X0475275Y0429568D01*
X0475877Y0430351D01*
X0476255Y0431264D01*
X0476384Y0432244D01*
X0476255Y0433224D01*
X0475877Y0434137D01*
X0475275Y0434921D01*
X0474491Y0435522D01*
X0473578Y0435900D01*
X0472598Y0436029D01*
X0471887Y0435936D01*
X0471806Y0436429D01*
X0472121Y0436492D01*
X0472551Y0436779D01*
X0476956Y0441184D01*
X0477524Y0440948D01*
X0478504Y0440819D01*
X0479484Y0440948D01*
X0480398Y0441327D01*
X0481182Y0441928D01*
X0481784Y0442713D01*
X0482162Y0443626D01*
X0482291Y0444606D01*
X0482162Y0445586D01*
X0481927Y0446155D01*
X0484172Y0448400D01*
X0587822D01*
Y0441720D01*
X0595328D01*
Y0448400D01*
X0596773D01*
X0598153Y0447019D01*
X0597919Y0446452D01*
X0597790Y0445472D01*
X0597919Y0444493D01*
X0598297Y0443580D01*
X0598898Y0442796D01*
X0599682Y0442194D01*
X0600595Y0441816D01*
X0601575Y0441687D01*
X0602555Y0441816D01*
X0603467Y0442194D01*
X0604251Y0442796D01*
X0604853Y0443580D01*
X0605231Y0444493D01*
X0605360Y0445472D01*
X0605231Y0446452D01*
X0604853Y0447365D01*
X0604251Y0448149D01*
X0603467Y0448750D01*
X0602555Y0449129D01*
X0601575Y0449258D01*
X0600595Y0449129D01*
X0600028Y0448894D01*
X0599184Y0449738D01*
X0599375Y0450200D01*
X0604973D01*
X0608153Y0447019D01*
X0607919Y0446452D01*
X0607790Y0445472D01*
X0607919Y0444493D01*
X0608297Y0443580D01*
X0608898Y0442796D01*
X0609682Y0442194D01*
X0610595Y0441816D01*
X0611575Y0441687D01*
X0612555Y0441816D01*
X0613467Y0442194D01*
X0614251Y0442796D01*
X0614853Y0443580D01*
X0615231Y0444493D01*
X0615360Y0445472D01*
X0615231Y0446452D01*
X0614853Y0447365D01*
X0614251Y0448149D01*
X0613467Y0448750D01*
X0612555Y0449129D01*
X0611575Y0449258D01*
X0610595Y0449129D01*
X0610028Y0448894D01*
X0606702Y0452220D01*
X0606909Y0452720D01*
X0630798D01*
X0632433Y0452536D01*
D02*
G37*
G36*
X0476260Y0374989D02*
X0476233Y0374948D01*
X0476094Y0374252D01*
X0476233Y0373556D01*
X0476627Y0372966D01*
X0477155Y0372613D01*
X0477154Y0372373D01*
X0477072Y0372113D01*
X0452002D01*
X0451734Y0372613D01*
X0451838Y0372768D01*
X0451977Y0373465D01*
X0451838Y0374161D01*
X0451444Y0374751D01*
X0450854Y0375145D01*
X0450157Y0375284D01*
X0450149Y0375282D01*
X0444895Y0380537D01*
Y0384965D01*
X0445310Y0385257D01*
X0451580Y0378986D01*
X0451705Y0378359D01*
X0452099Y0377769D01*
X0452690Y0377374D01*
X0453386Y0377236D01*
X0454082Y0377374D01*
X0454672Y0377769D01*
X0455067Y0378359D01*
X0455205Y0379055D01*
X0455067Y0379751D01*
X0454672Y0380342D01*
X0454082Y0380736D01*
X0453455Y0380861D01*
X0444895Y0389421D01*
Y0394749D01*
X0444895Y0395052D01*
X0445313Y0395249D01*
X0448811D01*
X0449343Y0394894D01*
X0450039Y0394756D01*
X0450736Y0394894D01*
X0451326Y0395288D01*
X0451720Y0395879D01*
X0451859Y0396575D01*
X0451720Y0397271D01*
X0451326Y0397861D01*
X0450736Y0398255D01*
X0450039Y0398394D01*
X0449343Y0398255D01*
X0448811Y0397900D01*
X0444895D01*
Y0399974D01*
X0451275D01*
X0476260Y0374989D01*
D02*
G37*
%LPC*%
G36*
X0508378Y0446810D02*
X0500678D01*
X0499425Y0446645D01*
X0498257Y0446161D01*
X0497254Y0445392D01*
X0497231Y0445361D01*
X0497212Y0445347D01*
X0496453Y0444357D01*
X0495975Y0443205D01*
X0495813Y0441968D01*
X0495975Y0440732D01*
X0496453Y0439580D01*
X0497212Y0438590D01*
X0497231Y0438576D01*
X0497254Y0438545D01*
X0498257Y0437776D01*
X0499425Y0437292D01*
X0500678Y0437127D01*
X0508378D01*
X0509631Y0437292D01*
X0510798Y0437776D01*
X0511801Y0438545D01*
X0511825Y0438576D01*
X0511843Y0438590D01*
X0512602Y0439580D01*
X0513080Y0440732D01*
X0513242Y0441968D01*
X0513080Y0443205D01*
X0512602Y0444357D01*
X0511843Y0445347D01*
X0511825Y0445361D01*
X0511801Y0445392D01*
X0510798Y0446161D01*
X0509631Y0446645D01*
X0508378Y0446810D01*
D02*
G37*
G36*
X0426685D02*
X0418985D01*
X0417732Y0446645D01*
X0416564Y0446161D01*
X0415561Y0445392D01*
X0415538Y0445361D01*
X0415519Y0445347D01*
X0414760Y0444357D01*
X0414283Y0443205D01*
X0414120Y0441968D01*
X0414283Y0440732D01*
X0414760Y0439580D01*
X0415519Y0438590D01*
X0415538Y0438576D01*
X0415561Y0438545D01*
X0416564Y0437776D01*
X0417732Y0437292D01*
X0418985Y0437127D01*
X0426685D01*
X0427938Y0437292D01*
X0429105Y0437776D01*
X0430108Y0438545D01*
X0430132Y0438576D01*
X0430150Y0438590D01*
X0430909Y0439580D01*
X0431387Y0440732D01*
X0431550Y0441968D01*
X0431387Y0443205D01*
X0430909Y0444357D01*
X0430150Y0445347D01*
X0430132Y0445361D01*
X0430108Y0445392D01*
X0429105Y0446161D01*
X0427938Y0446645D01*
X0426685Y0446810D01*
D02*
G37*
G36*
X0612598Y0436029D02*
X0611619Y0435900D01*
X0610706Y0435522D01*
X0609922Y0434921D01*
X0609320Y0434137D01*
X0608942Y0433224D01*
X0608813Y0432244D01*
X0608942Y0431264D01*
X0609320Y0430351D01*
X0609922Y0429568D01*
X0610706Y0428966D01*
X0611619Y0428588D01*
X0612598Y0428459D01*
X0613578Y0428588D01*
X0614491Y0428966D01*
X0615275Y0429568D01*
X0615876Y0430351D01*
X0616255Y0431264D01*
X0616384Y0432244D01*
X0616255Y0433224D01*
X0615876Y0434137D01*
X0615275Y0434921D01*
X0614491Y0435522D01*
X0613578Y0435900D01*
X0612598Y0436029D01*
D02*
G37*
G36*
X0602598D02*
X0601619Y0435900D01*
X0600706Y0435522D01*
X0599922Y0434921D01*
X0599320Y0434137D01*
X0598942Y0433224D01*
X0598813Y0432244D01*
X0598942Y0431264D01*
X0599320Y0430351D01*
X0599922Y0429568D01*
X0600706Y0428966D01*
X0601619Y0428588D01*
X0602598Y0428459D01*
X0603578Y0428588D01*
X0604491Y0428966D01*
X0605275Y0429568D01*
X0605876Y0430351D01*
X0606255Y0431264D01*
X0606384Y0432244D01*
X0606255Y0433224D01*
X0605876Y0434137D01*
X0605275Y0434921D01*
X0604491Y0435522D01*
X0603578Y0435900D01*
X0602598Y0436029D01*
D02*
G37*
G36*
X0592598D02*
X0591619Y0435900D01*
X0590706Y0435522D01*
X0589922Y0434921D01*
X0589320Y0434137D01*
X0588942Y0433224D01*
X0588813Y0432244D01*
X0588942Y0431264D01*
X0589320Y0430351D01*
X0589922Y0429568D01*
X0590706Y0428966D01*
X0591619Y0428588D01*
X0592598Y0428459D01*
X0593578Y0428588D01*
X0594491Y0428966D01*
X0595275Y0429568D01*
X0595877Y0430351D01*
X0596255Y0431264D01*
X0596384Y0432244D01*
X0596255Y0433224D01*
X0595877Y0434137D01*
X0595275Y0434921D01*
X0594491Y0435522D01*
X0593578Y0435900D01*
X0592598Y0436029D01*
D02*
G37*
G36*
X0542598D02*
X0541619Y0435900D01*
X0540706Y0435522D01*
X0539922Y0434921D01*
X0539320Y0434137D01*
X0538942Y0433224D01*
X0538813Y0432244D01*
X0538942Y0431264D01*
X0539320Y0430351D01*
X0539922Y0429568D01*
X0540706Y0428966D01*
X0541619Y0428588D01*
X0542598Y0428459D01*
X0543578Y0428588D01*
X0544491Y0428966D01*
X0545275Y0429568D01*
X0545877Y0430351D01*
X0546255Y0431264D01*
X0546384Y0432244D01*
X0546255Y0433224D01*
X0545877Y0434137D01*
X0545275Y0434921D01*
X0544491Y0435522D01*
X0543578Y0435900D01*
X0542598Y0436029D01*
D02*
G37*
G36*
X0589173Y0426229D02*
X0588477Y0426090D01*
X0587887Y0425696D01*
X0587493Y0425106D01*
X0587354Y0424409D01*
X0587493Y0423713D01*
X0587887Y0423123D01*
X0588477Y0422729D01*
X0589104Y0422604D01*
X0589457Y0422252D01*
X0589887Y0421964D01*
X0590394Y0421864D01*
X0590394Y0421864D01*
X0608142D01*
X0608674Y0421508D01*
X0609370Y0421370D01*
X0610066Y0421508D01*
X0610656Y0421903D01*
X0611051Y0422493D01*
X0611189Y0423189D01*
X0611051Y0423885D01*
X0610656Y0424475D01*
X0610066Y0424870D01*
X0609370Y0425008D01*
X0608674Y0424870D01*
X0608142Y0424514D01*
X0590972D01*
X0590854Y0425106D01*
X0590460Y0425696D01*
X0589869Y0426090D01*
X0589173Y0426229D01*
D02*
G37*
G36*
X0427178Y0390052D02*
X0413767D01*
Y0388333D01*
X0405047D01*
X0404515Y0388689D01*
X0403819Y0388827D01*
X0403123Y0388689D01*
X0402532Y0388294D01*
X0402138Y0387704D01*
X0402000Y0387008D01*
X0402138Y0386312D01*
X0402532Y0385721D01*
X0403123Y0385327D01*
X0403819Y0385189D01*
X0404515Y0385327D01*
X0405047Y0385682D01*
X0413767D01*
Y0382546D01*
X0427178D01*
Y0390052D01*
D02*
G37*
G36*
X0391339Y0411548D02*
X0389360Y0411392D01*
X0387429Y0410928D01*
X0385596Y0410169D01*
X0383903Y0409132D01*
X0382394Y0407842D01*
X0381104Y0406333D01*
X0380067Y0404641D01*
X0379308Y0402807D01*
X0378844Y0400877D01*
X0378689Y0398898D01*
X0378844Y0396919D01*
X0379308Y0394989D01*
X0380067Y0393155D01*
X0381104Y0391462D01*
X0382394Y0389953D01*
X0383903Y0388664D01*
X0385596Y0387626D01*
X0387429Y0386867D01*
X0389360Y0386403D01*
X0391339Y0386248D01*
X0393318Y0386403D01*
X0395248Y0386867D01*
X0397082Y0387626D01*
X0398774Y0388664D01*
X0400283Y0389953D01*
X0401573Y0391462D01*
X0402610Y0393155D01*
X0403370Y0394989D01*
X0403833Y0396919D01*
X0403989Y0398898D01*
X0403833Y0400877D01*
X0403370Y0402807D01*
X0402610Y0404641D01*
X0401573Y0406333D01*
X0400283Y0407842D01*
X0398774Y0409132D01*
X0397082Y0410169D01*
X0395248Y0410928D01*
X0393318Y0411392D01*
X0391339Y0411548D01*
D02*
G37*
G36*
X0537008Y0411469D02*
X0535029Y0411313D01*
X0533099Y0410850D01*
X0531265Y0410090D01*
X0529572Y0409053D01*
X0528063Y0407764D01*
X0526774Y0406254D01*
X0525737Y0404562D01*
X0524977Y0402728D01*
X0524514Y0400798D01*
X0524358Y0398819D01*
X0524514Y0396840D01*
X0524977Y0394910D01*
X0525737Y0393076D01*
X0526774Y0391383D01*
X0528063Y0389874D01*
X0529572Y0388585D01*
X0531265Y0387548D01*
X0533099Y0386788D01*
X0535029Y0386325D01*
X0537008Y0386169D01*
X0538987Y0386325D01*
X0540917Y0386788D01*
X0542751Y0387548D01*
X0544443Y0388585D01*
X0545953Y0389874D01*
X0547242Y0391383D01*
X0548279Y0393076D01*
X0549039Y0394910D01*
X0549502Y0396840D01*
X0549658Y0398819D01*
X0549502Y0400798D01*
X0549039Y0402728D01*
X0548279Y0404562D01*
X0547242Y0406254D01*
X0545953Y0407764D01*
X0544443Y0409053D01*
X0542751Y0410090D01*
X0540917Y0410850D01*
X0538987Y0411313D01*
X0537008Y0411469D01*
D02*
G37*
G36*
X0427178Y0380052D02*
X0413767D01*
Y0378924D01*
X0403275D01*
X0402743Y0379279D01*
X0402047Y0379418D01*
X0401351Y0379279D01*
X0400761Y0378885D01*
X0400366Y0378295D01*
X0400228Y0377598D01*
X0400366Y0376902D01*
X0400761Y0376312D01*
X0401351Y0375918D01*
X0402047Y0375779D01*
X0402743Y0375918D01*
X0403275Y0376273D01*
X0413767D01*
Y0372547D01*
X0427178D01*
Y0380052D01*
D02*
G37*
G36*
X0516850Y0385637D02*
X0515870Y0385508D01*
X0514957Y0385130D01*
X0514173Y0384528D01*
X0513571Y0383744D01*
X0513192Y0382831D01*
X0513063Y0381850D01*
X0513192Y0380870D01*
X0513571Y0379957D01*
X0514173Y0379172D01*
X0514957Y0378571D01*
X0515870Y0378192D01*
X0516850Y0378063D01*
X0517831Y0378192D01*
X0518744Y0378571D01*
X0519528Y0379172D01*
X0520130Y0379957D01*
X0520508Y0380870D01*
X0520638Y0381850D01*
X0520508Y0382831D01*
X0520130Y0383744D01*
X0519528Y0384528D01*
X0518744Y0385130D01*
X0517831Y0385508D01*
X0516850Y0385637D01*
D02*
G37*
G36*
X0581560Y0389056D02*
X0574448D01*
Y0376826D01*
X0581560D01*
Y0389056D01*
D02*
G37*
G36*
X0327087Y0399117D02*
X0326189Y0398938D01*
X0325428Y0398430D01*
X0324920Y0397669D01*
X0324742Y0396772D01*
Y0372953D01*
X0324920Y0372055D01*
X0325428Y0371294D01*
X0326189Y0370786D01*
X0327087Y0370608D01*
X0327984Y0370786D01*
X0328745Y0371294D01*
X0329253Y0372055D01*
X0329432Y0372953D01*
Y0396772D01*
X0329253Y0397669D01*
X0328745Y0398430D01*
X0327984Y0398938D01*
X0327087Y0399117D01*
D02*
G37*
G36*
X0572598Y0353903D02*
X0571619Y0353774D01*
X0570706Y0353396D01*
X0569922Y0352795D01*
X0569320Y0352011D01*
X0568942Y0351098D01*
X0568813Y0350118D01*
X0568942Y0349138D01*
X0569320Y0348226D01*
X0569922Y0347442D01*
X0570706Y0346840D01*
X0571619Y0346462D01*
X0572598Y0346333D01*
X0573578Y0346462D01*
X0574491Y0346840D01*
X0575275Y0347442D01*
X0575877Y0348226D01*
X0576255Y0349138D01*
X0576384Y0350118D01*
X0576255Y0351098D01*
X0575877Y0352011D01*
X0575275Y0352795D01*
X0574491Y0353396D01*
X0573578Y0353774D01*
X0572598Y0353903D01*
D02*
G37*
G36*
X0562598D02*
X0561619Y0353774D01*
X0560706Y0353396D01*
X0559922Y0352795D01*
X0559320Y0352011D01*
X0558942Y0351098D01*
X0558813Y0350118D01*
X0558942Y0349138D01*
X0559320Y0348226D01*
X0559922Y0347442D01*
X0560706Y0346840D01*
X0561619Y0346462D01*
X0562598Y0346333D01*
X0563578Y0346462D01*
X0564491Y0346840D01*
X0565275Y0347442D01*
X0565876Y0348226D01*
X0566255Y0349138D01*
X0566384Y0350118D01*
X0566255Y0351098D01*
X0565876Y0352011D01*
X0565275Y0352795D01*
X0564491Y0353396D01*
X0563578Y0353774D01*
X0562598Y0353903D01*
D02*
G37*
G36*
X0532598D02*
X0531619Y0353774D01*
X0530706Y0353396D01*
X0529922Y0352795D01*
X0529320Y0352011D01*
X0528942Y0351098D01*
X0528813Y0350118D01*
X0528942Y0349138D01*
X0529320Y0348226D01*
X0529922Y0347442D01*
X0530706Y0346840D01*
X0531619Y0346462D01*
X0532598Y0346333D01*
X0533578Y0346462D01*
X0534491Y0346840D01*
X0535275Y0347442D01*
X0535877Y0348226D01*
X0536255Y0349138D01*
X0536384Y0350118D01*
X0536255Y0351098D01*
X0535877Y0352011D01*
X0535275Y0352795D01*
X0534491Y0353396D01*
X0533578Y0353774D01*
X0532598Y0353903D01*
D02*
G37*
%LPD*%
D31*
X0438189Y0391496D02*
X0440945D01*
X0472047Y0360669D02*
X0482598Y0350118D01*
X0462087Y0360669D02*
X0472047D01*
X0388228Y0380472D02*
X0391024Y0377677D01*
X0384569Y0380472D02*
X0388228D01*
X0402047Y0377598D02*
X0419173D01*
X0406457Y0366496D02*
X0420276D01*
X0475423Y0451525D02*
X0605522D01*
X0611575Y0445472D01*
X0463386Y0449646D02*
X0468465Y0444567D01*
X0405079Y0449646D02*
X0463386D01*
X0468465Y0444567D02*
X0475423Y0451525D01*
X0597322Y0449725D02*
X0601575Y0445472D01*
X0478504Y0444606D02*
X0483623Y0449725D01*
X0597322D01*
X0419776Y0429252D02*
X0429173D01*
X0412751Y0422227D02*
X0419776Y0429252D01*
X0434055Y0431575D02*
X0436102Y0433622D01*
X0419554Y0431575D02*
X0434055D01*
X0436102Y0433622D02*
X0438386D01*
X0482508Y0368070D02*
X0492598Y0357980D01*
X0479251Y0368070D02*
X0482508D01*
X0623949Y0381760D02*
X0628004D01*
X0620776Y0384932D02*
X0623949Y0381760D01*
X0590816Y0384932D02*
X0620776D01*
X0584005Y0391743D02*
X0590816Y0384932D01*
X0564989Y0391743D02*
X0584005D01*
X0627362Y0386732D02*
X0628004Y0386091D01*
X0591561Y0386732D02*
X0627362D01*
X0584750Y0393543D02*
X0591561Y0386732D01*
X0543777Y0415501D02*
X0565735Y0393543D01*
X0507924Y0415501D02*
X0543777D01*
X0507205Y0416221D02*
X0507924Y0415501D01*
X0543032Y0413701D02*
X0564989Y0391743D01*
X0502835Y0413701D02*
X0543032D01*
X0500138Y0416398D02*
X0502835Y0413701D01*
X0565735Y0393543D02*
X0584750D01*
X0624777Y0394016D02*
X0627268D01*
X0609097Y0409696D02*
X0624777Y0394016D01*
X0564735Y0409696D02*
X0609097D01*
X0627268Y0394016D02*
X0628004Y0394752D01*
X0563110Y0411496D02*
X0609842D01*
X0559449Y0407835D02*
X0563110Y0411496D01*
X0557480Y0407835D02*
X0559449D01*
X0562205Y0407165D02*
X0564735Y0409696D01*
X0609842Y0411496D02*
X0617925Y0403413D01*
X0628004D01*
X0485039Y0419842D02*
X0562834D01*
X0484580Y0421929D02*
X0552638D01*
X0483835Y0423729D02*
X0525619D01*
X0463386Y0398189D02*
X0485039Y0419842D01*
X0469462Y0406811D02*
X0484580Y0421929D01*
X0469593Y0409487D02*
X0483835Y0423729D01*
X0499823Y0416398D02*
X0500138D01*
X0467125Y0409487D02*
X0469593D01*
X0468425Y0406811D02*
X0469462D01*
X0525039Y0426929D02*
X0527283Y0429173D01*
X0546575Y0438228D02*
X0552598Y0432205D01*
X0529528Y0438228D02*
X0546575D01*
X0527283Y0435984D02*
X0529528Y0438228D01*
X0527283Y0429173D02*
Y0435984D01*
X0589173Y0424409D02*
X0590394Y0423189D01*
X0609370D01*
X0463386Y0397756D02*
Y0398189D01*
X0532598Y0430709D02*
Y0432244D01*
X0525619Y0423729D02*
X0532598Y0430709D01*
X0562598Y0431890D02*
Y0432244D01*
X0552638Y0421929D02*
X0562598Y0431890D01*
X0522598Y0432244D02*
X0523543Y0433189D01*
X0416339Y0435276D02*
X0431732D01*
X0572598Y0429606D02*
Y0432244D01*
X0562834Y0419842D02*
X0572598Y0429606D01*
X0517875Y0345394D02*
X0522598Y0350118D01*
X0341339Y0448819D02*
X0354921Y0435236D01*
X0398858D01*
X0492598Y0432244D02*
Y0432353D01*
X0440945Y0391496D02*
X0453386Y0379055D01*
X0403109Y0440944D02*
X0407796Y0436257D01*
Y0428858D02*
Y0436257D01*
X0418661Y0405197D02*
X0419961Y0406496D01*
X0404055Y0431850D02*
X0405354D01*
X0403031Y0430827D02*
X0404055Y0431850D01*
X0412716Y0431653D02*
X0416339Y0435276D01*
X0403110Y0428189D02*
Y0430984D01*
X0398858Y0435236D02*
X0403110Y0430984D01*
X0334134Y0397795D02*
X0362165Y0425827D01*
X0411260D01*
X0418909Y0433476D01*
X0432478D01*
X0511142Y0350118D02*
X0512598D01*
X0532992Y0359724D02*
X0542598Y0350118D01*
X0495945Y0359724D02*
X0532992D01*
X0495199Y0357924D02*
X0503335D01*
X0511142Y0350118D01*
X0492598D02*
Y0357980D01*
X0432478Y0433476D02*
X0434909Y0435906D01*
X0431732Y0435276D02*
X0434173Y0437716D01*
X0471614D01*
X0478504Y0444606D01*
X0434909Y0435906D02*
X0451259D01*
X0460236Y0426929D01*
X0525039D01*
X0417441Y0406417D02*
X0418661Y0405197D01*
X0391192Y0424027D02*
X0412005D01*
X0419554Y0431575D01*
X0391938Y0422227D02*
X0412751D01*
X0477913Y0374252D02*
Y0375210D01*
X0449252Y0406417D02*
Y0406535D01*
X0449213Y0406496D02*
X0449252Y0406535D01*
X0419961Y0406496D02*
X0449213D01*
X0449252Y0406417D02*
X0495945Y0359724D01*
X0417244Y0387323D02*
X0418071Y0386496D01*
X0416929Y0387008D02*
X0417244Y0387323D01*
X0403819Y0387008D02*
X0416929D01*
X0374055Y0406890D02*
X0391192Y0424027D01*
X0375866Y0406155D02*
X0391938Y0422227D01*
X0374055Y0390986D02*
Y0406890D01*
X0375866Y0391721D02*
Y0406155D01*
X0374055Y0390986D02*
X0384569Y0380472D01*
X0375866Y0391721D02*
X0385314Y0382272D01*
X0390680D01*
X0406457Y0366496D01*
X0438189Y0361496D02*
X0444606D01*
X0460708Y0345394D01*
X0517875D01*
X0420472Y0396575D02*
X0450039D01*
X0438189Y0401299D02*
X0451825D01*
X0477913Y0375210D01*
X0420276Y0366496D02*
X0420472Y0366299D01*
X0419173Y0377598D02*
X0420472Y0376299D01*
X0482336Y0370787D02*
X0495199Y0357924D01*
X0438189Y0370787D02*
X0482336D01*
D32*
X0434094Y0352362D02*
X0449331D01*
X0453150Y0359567D02*
X0458347Y0364764D01*
X0508898Y0377244D02*
Y0397126D01*
Y0375551D02*
Y0377244D01*
X0494685Y0366024D02*
X0505905Y0377244D01*
X0508898D01*
X0603122Y0390421D02*
X0628004D01*
X0530905Y0371811D02*
X0552598Y0350118D01*
X0512638Y0371811D02*
X0530905D01*
X0508898Y0375551D02*
X0512638Y0371811D01*
X0508898Y0397126D02*
X0513622Y0401850D01*
X0516811D01*
X0327087Y0372953D02*
Y0396772D01*
X0429229Y0425765D02*
X0441890D01*
X0419961Y0416496D02*
X0429229Y0425765D01*
X0438189Y0411378D02*
X0449055D01*
X0453150Y0357874D02*
Y0359567D01*
X0458347Y0364764D02*
X0478819D01*
D33*
X0410512Y0428819D02*
Y0436631D01*
X0402260Y0444882D02*
X0410512Y0436631D01*
X0398661Y0444882D02*
X0402260D01*
X0438189Y0381496D02*
X0442205D01*
X0450157Y0373543D01*
Y0373465D02*
Y0373543D01*
D34*
X0621575Y0445472D02*
D03*
X0611575D02*
D03*
X0601575D02*
D03*
D35*
X0591575D02*
D03*
D36*
X0478504Y0444606D02*
D03*
X0468465Y0444567D02*
D03*
X0458465D02*
D03*
X0516850Y0391850D02*
D03*
Y0381850D02*
D03*
D37*
X0448465Y0444606D02*
D03*
X0462598Y0432244D02*
D03*
X0472598D02*
D03*
X0612598D02*
D03*
X0602598D02*
D03*
X0592598D02*
D03*
X0582598D02*
D03*
X0572598D02*
D03*
X0562598D02*
D03*
X0552598Y0432205D02*
D03*
X0482598Y0432244D02*
D03*
X0492598D02*
D03*
X0502598D02*
D03*
X0512598D02*
D03*
X0542598D02*
D03*
X0532598D02*
D03*
X0522598D02*
D03*
X0572598Y0350118D02*
D03*
X0562598D02*
D03*
X0552598D02*
D03*
X0542598D02*
D03*
X0532598D02*
D03*
X0522598D02*
D03*
X0512598D02*
D03*
X0502598D02*
D03*
X0492598D02*
D03*
X0482598D02*
D03*
X0472598D02*
D03*
X0462598D02*
D03*
X0516811Y0401850D02*
D03*
D38*
X0422835Y0441968D02*
D03*
X0504528D02*
D03*
D39*
X0391339Y0398898D02*
D03*
X0537008Y0398819D02*
D03*
D40*
X0631890Y0437008D02*
D03*
X0625984Y0425197D02*
D03*
Y0354331D02*
D03*
X0620079Y0437008D02*
D03*
X0614173Y0377953D02*
D03*
Y0354331D02*
D03*
X0608267Y0437008D02*
D03*
Y0366142D02*
D03*
X0602362Y0354331D02*
D03*
X0590551Y0401575D02*
D03*
X0596456Y0389764D02*
D03*
X0590551Y0377953D02*
D03*
X0596456Y0366142D02*
D03*
X0590551Y0354331D02*
D03*
X0578740Y0425197D02*
D03*
X0584646Y0366142D02*
D03*
X0578740Y0354331D02*
D03*
X0566929Y0401575D02*
D03*
X0572834Y0366142D02*
D03*
X0566929Y0354331D02*
D03*
X0561023Y0389764D02*
D03*
X0555118Y0377953D02*
D03*
X0561023Y0366142D02*
D03*
X0555118Y0354331D02*
D03*
X0543307Y0425197D02*
D03*
X0549212Y0389764D02*
D03*
X0543307Y0377953D02*
D03*
X0549212Y0366142D02*
D03*
X0531496Y0425197D02*
D03*
Y0377953D02*
D03*
X0525590Y0389764D02*
D03*
X0519685Y0377953D02*
D03*
X0525590Y0366142D02*
D03*
X0519685Y0354331D02*
D03*
X0513779Y0437008D02*
D03*
X0507874Y0401575D02*
D03*
X0513779Y0366142D02*
D03*
X0496063Y0377953D02*
D03*
X0501968Y0366142D02*
D03*
X0490157Y0437008D02*
D03*
Y0413386D02*
D03*
X0484252Y0401575D02*
D03*
X0490157Y0389764D02*
D03*
X0484252Y0377953D02*
D03*
X0478346Y0437008D02*
D03*
Y0389764D02*
D03*
X0460630Y0401575D02*
D03*
Y0377953D02*
D03*
X0454724Y0389764D02*
D03*
Y0366142D02*
D03*
X0442913D02*
D03*
X0431102D02*
D03*
X0401575Y0354331D02*
D03*
X0395669Y0413386D02*
D03*
Y0366142D02*
D03*
X0389764Y0354331D02*
D03*
X0377953Y0377953D02*
D03*
X0383858Y0366142D02*
D03*
X0377953Y0354331D02*
D03*
X0372047Y0413386D02*
D03*
X0366142Y0401575D02*
D03*
X0372047Y0389764D02*
D03*
X0366142Y0377953D02*
D03*
X0372047Y0366142D02*
D03*
X0366142Y0354331D02*
D03*
X0354331Y0425197D02*
D03*
Y0401575D02*
D03*
X0360236Y0389764D02*
D03*
X0354331Y0377953D02*
D03*
X0360236Y0366142D02*
D03*
X0354331Y0354331D02*
D03*
X0342520Y0425197D02*
D03*
Y0401575D02*
D03*
X0348425Y0389764D02*
D03*
X0342520Y0377953D02*
D03*
X0348425Y0366142D02*
D03*
X0342520Y0354331D02*
D03*
X0336614Y0437008D02*
D03*
Y0413386D02*
D03*
X0330709Y0401575D02*
D03*
X0336614Y0389764D02*
D03*
X0330709Y0377953D02*
D03*
X0336614Y0366142D02*
D03*
X0330709Y0354331D02*
D03*
X0324803Y0437008D02*
D03*
X0318898Y0425197D02*
D03*
Y0401575D02*
D03*
X0324803Y0366142D02*
D03*
X0318898Y0354331D02*
D03*
X0312992Y0437008D02*
D03*
X0307086Y0425197D02*
D03*
Y0401575D02*
D03*
X0312992Y0389764D02*
D03*
X0307086Y0377953D02*
D03*
X0312992Y0366142D02*
D03*
X0307086Y0354331D02*
D03*
X0301181Y0437008D02*
D03*
X0295275Y0425197D02*
D03*
Y0401575D02*
D03*
X0301181Y0389764D02*
D03*
X0295275Y0377953D02*
D03*
X0301181Y0366142D02*
D03*
X0295275Y0354331D02*
D03*
X0462087Y0360669D02*
D03*
X0479251Y0368070D02*
D03*
X0478819Y0364764D02*
D03*
X0494685Y0366024D02*
D03*
X0562205Y0407165D02*
D03*
X0507205Y0416221D02*
D03*
X0557480Y0407835D02*
D03*
X0499823Y0416398D02*
D03*
X0467125Y0409487D02*
D03*
X0468425Y0406811D02*
D03*
X0589173Y0424409D02*
D03*
X0609370Y0423189D02*
D03*
X0463386Y0397756D02*
D03*
X0603122Y0390421D02*
D03*
X0341339Y0448819D02*
D03*
X0398661Y0444882D02*
D03*
X0405079Y0449646D02*
D03*
X0398858Y0435236D02*
D03*
X0429173Y0429252D02*
D03*
X0334134Y0397795D02*
D03*
X0327087Y0396772D02*
D03*
Y0372953D02*
D03*
X0449055Y0411378D02*
D03*
X0453386Y0379055D02*
D03*
X0477913Y0374252D02*
D03*
X0441890Y0425765D02*
D03*
X0403109Y0440944D02*
D03*
X0412716Y0431653D02*
D03*
X0405354Y0431850D02*
D03*
X0403110Y0428189D02*
D03*
X0407717Y0428858D02*
D03*
X0410945Y0428819D02*
D03*
X0438386Y0433622D02*
D03*
X0389449Y0438307D02*
D03*
X0385669Y0438268D02*
D03*
X0393386D02*
D03*
X0381142D02*
D03*
X0417992Y0421772D02*
D03*
X0439488Y0441732D02*
D03*
X0434094Y0441890D02*
D03*
X0488779Y0443937D02*
D03*
X0391024Y0377677D02*
D03*
X0449252Y0406535D02*
D03*
X0402047Y0377598D02*
D03*
X0403819Y0387008D02*
D03*
X0449331Y0352362D02*
D03*
X0450039Y0396575D02*
D03*
X0450157Y0373465D02*
D03*
X0453150Y0357874D02*
D03*
D41*
X0578004Y0402232D02*
D03*
Y0382941D02*
D03*
D42*
X0577610Y0370933D02*
D03*
D43*
X0626035Y0363453D02*
D03*
D44*
Y0416012D02*
D03*
D45*
X0628004Y0407744D02*
D03*
Y0403413D02*
D03*
Y0399083D02*
D03*
Y0394752D02*
D03*
Y0390421D02*
D03*
Y0386091D02*
D03*
Y0381760D02*
D03*
Y0377429D02*
D03*
D46*
X0438189Y0411299D02*
D03*
Y0401299D02*
D03*
Y0391299D02*
D03*
Y0381299D02*
D03*
Y0371299D02*
D03*
Y0361299D02*
D03*
Y0351299D02*
D03*
X0420472Y0416299D02*
D03*
Y0406299D02*
D03*
Y0396299D02*
D03*
Y0386299D02*
D03*
Y0376299D02*
D03*
Y0366299D02*
D03*
Y0356299D02*
D03*
M02*
