G04*
G04 #@! TF.GenerationSoftware,Altium Limited,Altium Designer,18.1.9 (240)*
G04*
G04 Layer_Color=16711935*
%FSAX25Y25*%
%MOIN*%
G70*
G01*
G75*
%ADD25C,0.06706*%
%ADD26R,0.06706X0.06706*%
%ADD27C,0.06710*%
%ADD28C,0.06706*%
%ADD29O,0.16548X0.08674*%
%ADD30C,0.24422*%
%ADD31C,0.02769*%
%ADD48R,0.06312X0.11430*%
%ADD49R,0.05524X0.05524*%
%ADD50R,0.11036X0.06706*%
%ADD51R,0.11036X0.04737*%
%ADD52R,0.08674X0.03556*%
%ADD53R,0.12611X0.06706*%
D25*
X0621575Y0445472D02*
D03*
X0611575D02*
D03*
X0601575D02*
D03*
D26*
X0591575D02*
D03*
D27*
X0478504Y0444606D02*
D03*
X0468465Y0444567D02*
D03*
X0458465D02*
D03*
X0516850Y0391850D02*
D03*
Y0381850D02*
D03*
D28*
X0448465Y0444606D02*
D03*
X0462598Y0432244D02*
D03*
X0472598D02*
D03*
X0612598D02*
D03*
X0602598D02*
D03*
X0592598D02*
D03*
X0582598D02*
D03*
X0572598D02*
D03*
X0562598D02*
D03*
X0552598Y0432205D02*
D03*
X0482598Y0432244D02*
D03*
X0492598D02*
D03*
X0502598D02*
D03*
X0512598D02*
D03*
X0542598D02*
D03*
X0532598D02*
D03*
X0522598D02*
D03*
X0572598Y0350118D02*
D03*
X0562598D02*
D03*
X0552598D02*
D03*
X0542598D02*
D03*
X0532598D02*
D03*
X0522598D02*
D03*
X0512598D02*
D03*
X0502598D02*
D03*
X0492598D02*
D03*
X0482598D02*
D03*
X0472598D02*
D03*
X0462598D02*
D03*
X0516811Y0401850D02*
D03*
D29*
X0422835Y0441968D02*
D03*
X0504528D02*
D03*
D30*
X0391339Y0398898D02*
D03*
X0536221Y0398819D02*
D03*
D31*
X0444961Y0351496D02*
D03*
X0452835Y0359252D02*
D03*
X0478819Y0364764D02*
D03*
X0494685Y0366024D02*
D03*
D48*
X0578004Y0402232D02*
D03*
Y0382941D02*
D03*
D49*
X0577610Y0370933D02*
D03*
D50*
X0626035Y0363453D02*
D03*
D51*
Y0416012D02*
D03*
D52*
X0628004Y0407744D02*
D03*
Y0403413D02*
D03*
Y0399083D02*
D03*
Y0394752D02*
D03*
Y0390421D02*
D03*
Y0386091D02*
D03*
Y0381760D02*
D03*
Y0377429D02*
D03*
D53*
X0430315Y0411496D02*
D03*
Y0401496D02*
D03*
Y0391496D02*
D03*
Y0381496D02*
D03*
Y0371496D02*
D03*
Y0361496D02*
D03*
Y0351496D02*
D03*
X0412598Y0416496D02*
D03*
Y0406496D02*
D03*
Y0396496D02*
D03*
Y0386496D02*
D03*
Y0376496D02*
D03*
Y0366496D02*
D03*
Y0356496D02*
D03*
M02*
