G04*
G04 #@! TF.GenerationSoftware,Altium Limited,Altium Designer,18.1.9 (240)*
G04*
G04 Layer_Color=65535*
%FSAX25Y25*%
%MOIN*%
G70*
G01*
G75*
%ADD10C,0.00394*%
%ADD11C,0.00787*%
%ADD12C,0.00591*%
D10*
X0397244Y0439567D02*
G03*
X0397244Y0439567I-0000197J0000000D01*
G01*
D11*
X0410669Y0344094D02*
Y0450236D01*
Y0344094D02*
X0516811D01*
Y0450236D01*
X0410669D02*
X0516811D01*
X0637756Y0346220D02*
Y0436181D01*
X0437598Y0346220D02*
X0637756D01*
X0437598D02*
Y0436181D01*
X0637756D01*
X0337402Y0370118D02*
X0348819D01*
Y0375433D01*
X0337402D02*
X0348819D01*
X0337402Y0370118D02*
Y0375433D01*
X0601653Y0371890D02*
X0613071D01*
Y0377205D01*
X0601653D02*
X0613071D01*
X0601653Y0371890D02*
Y0377205D01*
X0384055Y0450984D02*
X0386142D01*
X0393386D02*
X0395472D01*
X0384055Y0439567D02*
X0386142D01*
X0393386D02*
X0395472D01*
X0384055Y0450295D02*
Y0450984D01*
Y0439567D02*
Y0440256D01*
X0395472Y0450295D02*
Y0450984D01*
Y0439567D02*
Y0440256D01*
X0367008Y0444370D02*
Y0450315D01*
Y0444370D02*
X0379055D01*
Y0450315D01*
X0367008D02*
X0379055D01*
X0352520Y0435118D02*
Y0446535D01*
X0347205D02*
X0352520D01*
X0347205Y0435118D02*
Y0446535D01*
Y0435118D02*
X0352520D01*
X0343465D02*
Y0446535D01*
X0338150D02*
X0343465D01*
X0338150Y0435118D02*
Y0446535D01*
Y0435118D02*
X0343465D01*
X0296811Y0375472D02*
X0308228D01*
X0296811Y0370158D02*
Y0375472D01*
Y0370158D02*
X0308228D01*
Y0375472D01*
X0560945Y0376929D02*
X0572362D01*
X0560945Y0371614D02*
Y0376929D01*
Y0371614D02*
X0572362D01*
Y0376929D01*
X0367008Y0435276D02*
X0378425D01*
Y0440590D01*
X0367008D02*
X0378425D01*
X0367008Y0435276D02*
Y0440590D01*
D12*
X0296772Y0422873D02*
Y0420118D01*
X0298149D01*
X0298608Y0420577D01*
Y0421036D01*
X0298149Y0421496D01*
X0296772D01*
X0298149D01*
X0298608Y0421955D01*
Y0422414D01*
X0298149Y0422873D01*
X0296772D01*
X0299527Y0420118D02*
X0300445D01*
X0299986D01*
Y0422873D01*
X0299527Y0422414D01*
X0580394Y0423188D02*
Y0420433D01*
X0581771D01*
X0582230Y0420892D01*
Y0421351D01*
X0581771Y0421811D01*
X0580394D01*
X0581771D01*
X0582230Y0422270D01*
Y0422729D01*
X0581771Y0423188D01*
X0580394D01*
X0584985Y0420433D02*
X0583149D01*
X0584985Y0422270D01*
Y0422729D01*
X0584526Y0423188D01*
X0583608D01*
X0583149Y0422729D01*
X0343307Y0423031D02*
Y0420276D01*
X0344685D01*
X0345144Y0420735D01*
Y0421194D01*
X0344685Y0421653D01*
X0343307D01*
X0344685D01*
X0345144Y0422112D01*
Y0422571D01*
X0344685Y0423031D01*
X0343307D01*
X0346062Y0422571D02*
X0346521Y0423031D01*
X0347440D01*
X0347899Y0422571D01*
Y0422112D01*
X0347440Y0421653D01*
X0346981D01*
X0347440D01*
X0347899Y0421194D01*
Y0420735D01*
X0347440Y0420276D01*
X0346521D01*
X0346062Y0420735D01*
X0627165Y0424133D02*
Y0421378D01*
X0628543D01*
X0629002Y0421837D01*
Y0422296D01*
X0628543Y0422755D01*
X0627165D01*
X0628543D01*
X0629002Y0423215D01*
Y0423674D01*
X0628543Y0424133D01*
X0627165D01*
X0631298Y0421378D02*
Y0424133D01*
X0629920Y0422755D01*
X0631757D01*
X0361679Y0448359D02*
X0361220Y0448818D01*
X0360302D01*
X0359842Y0448359D01*
Y0446522D01*
X0360302Y0446063D01*
X0361220D01*
X0361679Y0446522D01*
X0362597Y0448359D02*
X0363057Y0448818D01*
X0363975D01*
X0364434Y0448359D01*
Y0447900D01*
X0363975Y0447440D01*
X0363516D01*
X0363975D01*
X0364434Y0446981D01*
Y0446522D01*
X0363975Y0446063D01*
X0363057D01*
X0362597Y0446522D01*
X0385695Y0437401D02*
X0384777D01*
X0385236D01*
Y0435105D01*
X0384777Y0434646D01*
X0384317D01*
X0383858Y0435105D01*
X0386613Y0434646D02*
X0387532D01*
X0387072D01*
Y0437401D01*
X0386613Y0436941D01*
X0406089Y0446574D02*
X0405170D01*
X0405629D01*
Y0444278D01*
X0405170Y0443819D01*
X0404711D01*
X0404252Y0444278D01*
X0408844Y0443819D02*
X0407007D01*
X0408844Y0445656D01*
Y0446115D01*
X0408385Y0446574D01*
X0407466D01*
X0407007Y0446115D01*
X0360630Y0436221D02*
Y0438975D01*
X0362007D01*
X0362467Y0438516D01*
Y0437598D01*
X0362007Y0437139D01*
X0360630D01*
X0361548D02*
X0362467Y0436221D01*
X0363385D02*
X0364303D01*
X0363844D01*
Y0438975D01*
X0363385Y0438516D01*
X0347284Y0430551D02*
Y0433306D01*
X0348661D01*
X0349120Y0432847D01*
Y0431929D01*
X0348661Y0431469D01*
X0347284D01*
X0348202D02*
X0349120Y0430551D01*
X0351875D02*
X0350039D01*
X0351875Y0432388D01*
Y0432847D01*
X0351416Y0433306D01*
X0350498D01*
X0350039Y0432847D01*
X0338504Y0430512D02*
Y0433267D01*
X0339881D01*
X0340341Y0432808D01*
Y0431889D01*
X0339881Y0431430D01*
X0338504D01*
X0339422D02*
X0340341Y0430512D01*
X0341259Y0432808D02*
X0341718Y0433267D01*
X0342636D01*
X0343096Y0432808D01*
Y0432348D01*
X0342636Y0431889D01*
X0342177D01*
X0342636D01*
X0343096Y0431430D01*
Y0430971D01*
X0342636Y0430512D01*
X0341718D01*
X0341259Y0430971D01*
X0296772Y0365394D02*
Y0368149D01*
X0298149D01*
X0298608Y0367690D01*
Y0366771D01*
X0298149Y0366312D01*
X0296772D01*
X0297690D02*
X0298608Y0365394D01*
X0300904D02*
Y0368149D01*
X0299527Y0366771D01*
X0301363D01*
X0561417Y0366535D02*
Y0369290D01*
X0562795D01*
X0563254Y0368831D01*
Y0367913D01*
X0562795Y0367454D01*
X0561417D01*
X0562336D02*
X0563254Y0366535D01*
X0566009Y0369290D02*
X0564172D01*
Y0367913D01*
X0565091Y0368372D01*
X0565550D01*
X0566009Y0367913D01*
Y0366995D01*
X0565550Y0366535D01*
X0564632D01*
X0564172Y0366995D01*
X0337362Y0365236D02*
Y0367991D01*
X0338740D01*
X0339199Y0367532D01*
Y0366614D01*
X0338740Y0366155D01*
X0337362D01*
X0338281D02*
X0339199Y0365236D01*
X0341954Y0367991D02*
X0341036Y0367532D01*
X0340117Y0366614D01*
Y0365695D01*
X0340576Y0365236D01*
X0341495D01*
X0341954Y0365695D01*
Y0366155D01*
X0341495Y0366614D01*
X0340117D01*
X0601575Y0367284D02*
Y0370039D01*
X0602952D01*
X0603411Y0369579D01*
Y0368661D01*
X0602952Y0368202D01*
X0601575D01*
X0602493D02*
X0603411Y0367284D01*
X0604330Y0370039D02*
X0606167D01*
Y0369579D01*
X0604330Y0367743D01*
Y0367284D01*
X0629173Y0441023D02*
Y0438727D01*
X0629632Y0438268D01*
X0630551D01*
X0631010Y0438727D01*
Y0441023D01*
X0633765Y0438268D02*
X0631928D01*
X0633765Y0440104D01*
Y0440564D01*
X0633306Y0441023D01*
X0632387D01*
X0631928Y0440564D01*
M02*
