G04*
G04 #@! TF.GenerationSoftware,Altium Limited,Altium Designer,18.1.9 (240)*
G04*
G04 Layer_Physical_Order=2*
G04 Layer_Color=16711680*
%FSAX25Y25*%
%MOIN*%
G70*
G01*
G75*
%ADD32C,0.01000*%
%ADD33C,0.03000*%
%ADD34C,0.00800*%
%ADD35C,0.05906*%
%ADD36R,0.05906X0.05906*%
%ADD37C,0.05910*%
%ADD38C,0.05906*%
%ADD39O,0.15748X0.07874*%
%ADD40C,0.23622*%
%ADD41C,0.01968*%
%ADD42R,0.05512X0.10630*%
%ADD43R,0.04724X0.04724*%
%ADD44R,0.10236X0.05906*%
%ADD45R,0.10236X0.03937*%
%ADD46R,0.07874X0.02756*%
%ADD47R,0.11811X0.05906*%
G36*
X0632433Y0452536D02*
X0633922Y0452015D01*
X0635257Y0451176D01*
X0636373Y0450061D01*
X0637212Y0448725D01*
X0637733Y0447236D01*
X0637917Y0445601D01*
Y0352037D01*
X0637733Y0350401D01*
X0637212Y0348913D01*
X0636373Y0347577D01*
X0635257Y0346462D01*
X0633922Y0345623D01*
X0632433Y0345102D01*
X0630798Y0344918D01*
X0519926D01*
X0519735Y0345380D01*
X0521052Y0346697D01*
X0521619Y0346462D01*
X0522598Y0346333D01*
X0523578Y0346462D01*
X0524491Y0346840D01*
X0525275Y0347442D01*
X0525877Y0348226D01*
X0526255Y0349138D01*
X0526384Y0350118D01*
X0526255Y0351098D01*
X0525877Y0352011D01*
X0525275Y0352795D01*
X0524491Y0353396D01*
X0523578Y0353774D01*
X0522598Y0353903D01*
X0521619Y0353774D01*
X0520706Y0353396D01*
X0519922Y0352795D01*
X0519320Y0352011D01*
X0518942Y0351098D01*
X0518813Y0350118D01*
X0518942Y0349138D01*
X0519177Y0348571D01*
X0517326Y0346720D01*
X0515156D01*
X0514986Y0347220D01*
X0515275Y0347442D01*
X0515876Y0348226D01*
X0516255Y0349138D01*
X0516384Y0350118D01*
X0516255Y0351098D01*
X0515876Y0352011D01*
X0515275Y0352795D01*
X0514491Y0353396D01*
X0513578Y0353774D01*
X0512598Y0353903D01*
X0511619Y0353774D01*
X0510706Y0353396D01*
X0510158Y0352976D01*
X0505197Y0357937D01*
X0505389Y0358399D01*
X0532443D01*
X0539177Y0351665D01*
X0538942Y0351098D01*
X0538813Y0350118D01*
X0538942Y0349138D01*
X0539320Y0348226D01*
X0539922Y0347442D01*
X0540706Y0346840D01*
X0541619Y0346462D01*
X0542598Y0346333D01*
X0543578Y0346462D01*
X0544491Y0346840D01*
X0545275Y0347442D01*
X0545877Y0348226D01*
X0546255Y0349138D01*
X0546384Y0350118D01*
X0546255Y0351098D01*
X0545877Y0352011D01*
X0545275Y0352795D01*
X0544491Y0353396D01*
X0543578Y0353774D01*
X0542598Y0353903D01*
X0541619Y0353774D01*
X0541052Y0353539D01*
X0533929Y0360662D01*
X0533499Y0360949D01*
X0532992Y0361050D01*
X0496494D01*
X0494298Y0363246D01*
X0494544Y0363706D01*
X0494685Y0363679D01*
X0495582Y0363857D01*
X0496343Y0364365D01*
X0506331Y0374353D01*
X0506975Y0374289D01*
X0507239Y0373893D01*
X0510980Y0370153D01*
X0510980Y0370153D01*
X0511740Y0369644D01*
X0512638Y0369466D01*
X0529934D01*
X0548868Y0350532D01*
X0548813Y0350118D01*
X0548942Y0349138D01*
X0549320Y0348226D01*
X0549922Y0347442D01*
X0550706Y0346840D01*
X0551619Y0346462D01*
X0552598Y0346333D01*
X0553578Y0346462D01*
X0554491Y0346840D01*
X0555275Y0347442D01*
X0555876Y0348226D01*
X0556255Y0349138D01*
X0556384Y0350118D01*
X0556255Y0351098D01*
X0555876Y0352011D01*
X0555275Y0352795D01*
X0554491Y0353396D01*
X0553578Y0353774D01*
X0552598Y0353903D01*
X0552184Y0353849D01*
X0532564Y0373469D01*
X0531803Y0373978D01*
X0530905Y0374156D01*
X0513609D01*
X0511243Y0376522D01*
Y0377244D01*
Y0396155D01*
X0514207Y0399119D01*
X0514919Y0398572D01*
X0515831Y0398194D01*
X0516811Y0398065D01*
X0517791Y0398194D01*
X0518704Y0398572D01*
X0519487Y0399174D01*
X0520089Y0399958D01*
X0520467Y0400871D01*
X0520596Y0401850D01*
X0520467Y0402830D01*
X0520089Y0403743D01*
X0519487Y0404527D01*
X0518704Y0405128D01*
X0517791Y0405507D01*
X0516811Y0405635D01*
X0515831Y0405507D01*
X0514919Y0405128D01*
X0514135Y0404527D01*
X0513880Y0404195D01*
X0513622D01*
X0512725Y0404017D01*
X0511964Y0403509D01*
X0507239Y0398784D01*
X0506731Y0398023D01*
X0506553Y0397126D01*
Y0379589D01*
X0505905D01*
X0505008Y0379411D01*
X0504247Y0378902D01*
X0493027Y0367682D01*
X0492519Y0366921D01*
X0492340Y0366024D01*
X0492368Y0365883D01*
X0491907Y0365637D01*
X0451061Y0406483D01*
X0451071Y0406535D01*
X0450933Y0407232D01*
X0450538Y0407822D01*
X0449948Y0408216D01*
X0449252Y0408355D01*
X0448556Y0408216D01*
X0447966Y0407822D01*
X0447965Y0407822D01*
X0437302D01*
X0437167Y0407990D01*
X0436992Y0408322D01*
X0437036Y0408543D01*
Y0409033D01*
X0449055D01*
X0449953Y0409211D01*
X0450713Y0409720D01*
X0451222Y0410480D01*
X0451400Y0411378D01*
X0451222Y0412275D01*
X0450713Y0413036D01*
X0449953Y0413545D01*
X0449055Y0413723D01*
X0437036D01*
Y0414449D01*
X0436974Y0414761D01*
X0436797Y0415026D01*
X0436533Y0415202D01*
X0436221Y0415265D01*
X0424409D01*
X0424097Y0415202D01*
X0423833Y0415026D01*
X0423656Y0414761D01*
X0423594Y0414449D01*
Y0408543D01*
X0423638Y0408322D01*
X0423463Y0407990D01*
X0423328Y0407822D01*
X0419961D01*
X0419820Y0407794D01*
X0419320Y0408187D01*
Y0409449D01*
X0419257Y0409761D01*
X0419081Y0410026D01*
X0418816Y0410202D01*
X0418504Y0410264D01*
X0406693D01*
X0406381Y0410202D01*
X0406116Y0410026D01*
X0405939Y0409761D01*
X0405877Y0409449D01*
Y0403543D01*
X0405939Y0403231D01*
X0406116Y0402966D01*
X0406381Y0402790D01*
X0406693Y0402728D01*
X0418504D01*
X0418816Y0402790D01*
X0419081Y0402966D01*
X0419257Y0403231D01*
X0419320Y0403543D01*
Y0404073D01*
X0419599Y0404260D01*
X0420510Y0405171D01*
X0423328D01*
X0423463Y0405002D01*
X0423638Y0404671D01*
X0423594Y0404449D01*
Y0398543D01*
X0423607Y0398479D01*
X0423269Y0397979D01*
X0419320D01*
Y0399449D01*
X0419257Y0399761D01*
X0419081Y0400026D01*
X0418816Y0400202D01*
X0418504Y0400265D01*
X0406693D01*
X0406381Y0400202D01*
X0406116Y0400026D01*
X0405939Y0399761D01*
X0405877Y0399449D01*
Y0393543D01*
X0405939Y0393231D01*
X0406116Y0392967D01*
X0406381Y0392790D01*
X0406693Y0392728D01*
X0418504D01*
X0418816Y0392790D01*
X0419081Y0392967D01*
X0419257Y0393231D01*
X0419320Y0393543D01*
Y0395328D01*
X0423454D01*
X0423701Y0394828D01*
X0423656Y0394761D01*
X0423594Y0394449D01*
Y0388543D01*
X0423656Y0388231D01*
X0423833Y0387966D01*
X0424097Y0387790D01*
X0424409Y0387728D01*
X0436221D01*
X0436533Y0387790D01*
X0436797Y0387966D01*
X0436974Y0388231D01*
X0437036Y0388543D01*
Y0390171D01*
X0440396D01*
X0451580Y0378986D01*
X0451705Y0378359D01*
X0452099Y0377769D01*
X0452690Y0377374D01*
X0453386Y0377236D01*
X0454082Y0377374D01*
X0454672Y0377769D01*
X0455067Y0378359D01*
X0455205Y0379055D01*
X0455067Y0379751D01*
X0454672Y0380342D01*
X0454082Y0380736D01*
X0453455Y0380861D01*
X0441882Y0392433D01*
X0441452Y0392721D01*
X0440945Y0392822D01*
X0437036D01*
Y0394449D01*
X0436974Y0394761D01*
X0436929Y0394828D01*
X0437176Y0395328D01*
X0441489D01*
X0442020Y0394973D01*
X0442717Y0394834D01*
X0443413Y0394973D01*
X0444003Y0395367D01*
X0444397Y0395957D01*
X0444536Y0396654D01*
X0444397Y0397350D01*
X0444003Y0397940D01*
X0443413Y0398334D01*
X0442717Y0398473D01*
X0442020Y0398334D01*
X0441489Y0397979D01*
X0437361D01*
X0437023Y0398479D01*
X0437036Y0398543D01*
Y0401352D01*
X0449897D01*
X0476260Y0374989D01*
X0476233Y0374948D01*
X0476094Y0374252D01*
X0476233Y0373556D01*
X0476627Y0372966D01*
X0477155Y0372613D01*
X0477154Y0372373D01*
X0477072Y0372113D01*
X0437036D01*
Y0374449D01*
X0436974Y0374761D01*
X0436797Y0375026D01*
X0436533Y0375202D01*
X0436221Y0375265D01*
X0424409D01*
X0424097Y0375202D01*
X0423833Y0375026D01*
X0423656Y0374761D01*
X0423594Y0374449D01*
Y0368543D01*
X0423656Y0368231D01*
X0423833Y0367967D01*
X0424097Y0367790D01*
X0424409Y0367728D01*
X0436221D01*
X0436533Y0367790D01*
X0436797Y0367967D01*
X0436974Y0368231D01*
X0437036Y0368543D01*
Y0369462D01*
X0477434D01*
X0477701Y0368962D01*
X0477570Y0368766D01*
X0477432Y0368070D01*
X0477524Y0367609D01*
X0477192Y0367109D01*
X0458347D01*
X0458347Y0367109D01*
X0457449Y0366930D01*
X0456688Y0366422D01*
X0451176Y0360910D01*
X0450668Y0360149D01*
X0450490Y0359252D01*
X0450668Y0358355D01*
X0451176Y0357594D01*
X0451937Y0357085D01*
X0452835Y0356907D01*
X0453732Y0357085D01*
X0454493Y0357594D01*
X0459318Y0362419D01*
X0460593D01*
X0460733Y0362106D01*
X0460776Y0361919D01*
X0460406Y0361366D01*
X0460267Y0360669D01*
X0460406Y0359973D01*
X0460800Y0359383D01*
X0461243Y0359087D01*
X0461700Y0358630D01*
X0462131Y0358342D01*
X0462638Y0358242D01*
X0472601D01*
X0479177Y0351665D01*
X0478942Y0351098D01*
X0478813Y0350118D01*
X0478942Y0349138D01*
X0479320Y0348226D01*
X0479922Y0347442D01*
X0480211Y0347220D01*
X0480041Y0346720D01*
X0475156D01*
X0474986Y0347220D01*
X0475275Y0347442D01*
X0475877Y0348226D01*
X0476255Y0349138D01*
X0476384Y0350118D01*
X0476255Y0351098D01*
X0475877Y0352011D01*
X0475275Y0352795D01*
X0474491Y0353396D01*
X0473578Y0353774D01*
X0472598Y0353903D01*
X0471619Y0353774D01*
X0470706Y0353396D01*
X0469922Y0352795D01*
X0469320Y0352011D01*
X0468942Y0351098D01*
X0468813Y0350118D01*
X0468942Y0349138D01*
X0469320Y0348226D01*
X0469922Y0347442D01*
X0470211Y0347220D01*
X0470041Y0346720D01*
X0465156D01*
X0464986Y0347220D01*
X0465275Y0347442D01*
X0465876Y0348226D01*
X0466255Y0349138D01*
X0466384Y0350118D01*
X0466255Y0351098D01*
X0465876Y0352011D01*
X0465275Y0352795D01*
X0464491Y0353396D01*
X0463578Y0353774D01*
X0462598Y0353903D01*
X0461619Y0353774D01*
X0460706Y0353396D01*
X0459922Y0352795D01*
X0459320Y0352011D01*
X0458942Y0351098D01*
X0458813Y0350118D01*
X0458942Y0349138D01*
X0459320Y0348226D01*
X0459922Y0347442D01*
X0460211Y0347220D01*
X0460041Y0346720D01*
X0459485D01*
X0443772Y0362433D01*
X0443342Y0362721D01*
X0442835Y0362822D01*
X0437036D01*
Y0364449D01*
X0436974Y0364761D01*
X0436797Y0365026D01*
X0436533Y0365202D01*
X0436221Y0365265D01*
X0424409D01*
X0424097Y0365202D01*
X0423833Y0365026D01*
X0423656Y0364761D01*
X0423594Y0364449D01*
Y0358543D01*
X0423656Y0358231D01*
X0423833Y0357966D01*
X0424097Y0357790D01*
X0424409Y0357728D01*
X0436221D01*
X0436533Y0357790D01*
X0436797Y0357966D01*
X0436974Y0358231D01*
X0437036Y0358543D01*
Y0360171D01*
X0442286D01*
X0457076Y0345380D01*
X0456885Y0344918D01*
X0297076D01*
X0295441Y0345102D01*
X0293952Y0345623D01*
X0292617Y0346462D01*
X0291501Y0347577D01*
X0290662Y0348913D01*
X0290142Y0350401D01*
X0289957Y0352037D01*
Y0445601D01*
X0290142Y0447236D01*
X0290662Y0448725D01*
X0291501Y0450061D01*
X0292617Y0451176D01*
X0293952Y0452015D01*
X0295441Y0452536D01*
X0297076Y0452720D01*
X0474036D01*
X0474243Y0452220D01*
X0470013Y0447990D01*
X0469445Y0448225D01*
X0468465Y0448354D01*
X0467484Y0448225D01*
X0466916Y0447990D01*
X0464323Y0450583D01*
X0463893Y0450870D01*
X0463386Y0450971D01*
X0406307D01*
X0405775Y0451326D01*
X0405079Y0451465D01*
X0404383Y0451326D01*
X0403792Y0450932D01*
X0403398Y0450342D01*
X0403260Y0449646D01*
X0403398Y0448949D01*
X0403792Y0448359D01*
X0404383Y0447965D01*
X0405079Y0447826D01*
X0405775Y0447965D01*
X0406307Y0448320D01*
X0446355D01*
X0446439Y0448151D01*
X0446489Y0447820D01*
X0445788Y0447283D01*
X0445187Y0446499D01*
X0444808Y0445586D01*
X0444679Y0444606D01*
X0444808Y0443627D01*
X0445187Y0442714D01*
X0445788Y0441930D01*
X0446572Y0441328D01*
X0447485Y0440950D01*
X0448465Y0440821D01*
X0449444Y0440950D01*
X0450357Y0441328D01*
X0451141Y0441930D01*
X0451743Y0442714D01*
X0452121Y0443627D01*
X0452250Y0444606D01*
X0452121Y0445586D01*
X0451743Y0446499D01*
X0451141Y0447283D01*
X0450441Y0447820D01*
X0450490Y0448151D01*
X0450574Y0448320D01*
X0462837D01*
X0465042Y0446115D01*
X0464807Y0445547D01*
X0464677Y0444567D01*
X0464807Y0443587D01*
X0465185Y0442673D01*
X0465787Y0441889D01*
X0466571Y0441287D01*
X0467484Y0440909D01*
X0468465Y0440780D01*
X0469445Y0440909D01*
X0470358Y0441287D01*
X0471142Y0441889D01*
X0471744Y0442673D01*
X0472123Y0443587D01*
X0472252Y0444567D01*
X0472123Y0445547D01*
X0471887Y0446115D01*
X0475972Y0450200D01*
X0481570D01*
X0481761Y0449738D01*
X0480052Y0448029D01*
X0479484Y0448264D01*
X0478504Y0448393D01*
X0477524Y0448264D01*
X0476610Y0447886D01*
X0475826Y0447284D01*
X0475224Y0446500D01*
X0474846Y0445586D01*
X0474717Y0444606D01*
X0474846Y0443626D01*
X0475081Y0443058D01*
X0471065Y0439042D01*
X0434173D01*
X0433666Y0438941D01*
X0433236Y0438654D01*
X0431183Y0436601D01*
X0416339D01*
X0415831Y0436500D01*
X0415401Y0436213D01*
X0412647Y0433459D01*
X0412235Y0433377D01*
X0411735Y0433699D01*
Y0436631D01*
X0411642Y0437099D01*
X0411377Y0437496D01*
X0404678Y0444194D01*
X0404282Y0444459D01*
X0403813Y0444553D01*
X0400851D01*
X0400481Y0444882D01*
X0400342Y0445578D01*
X0399948Y0446168D01*
X0399358Y0446563D01*
X0398661Y0446701D01*
X0397965Y0446563D01*
X0397375Y0446168D01*
X0396981Y0445578D01*
X0396842Y0444882D01*
X0396981Y0444186D01*
X0397375Y0443596D01*
X0397965Y0443201D01*
X0398661Y0443063D01*
X0398736Y0443077D01*
X0399349Y0442464D01*
X0399746Y0442199D01*
X0400214Y0442106D01*
X0401209D01*
X0401417Y0441717D01*
X0401422Y0441606D01*
X0401290Y0440944D01*
X0401429Y0440248D01*
X0401823Y0439658D01*
X0402413Y0439263D01*
X0403040Y0439139D01*
X0406471Y0435708D01*
Y0433787D01*
X0405971Y0433547D01*
X0405354Y0433670D01*
X0404658Y0433531D01*
X0404127Y0433176D01*
X0404055D01*
X0403548Y0433075D01*
X0403156Y0432813D01*
X0400664Y0435305D01*
X0400539Y0435932D01*
X0400145Y0436523D01*
X0399554Y0436917D01*
X0398858Y0437055D01*
X0398162Y0436917D01*
X0397630Y0436562D01*
X0355470D01*
X0343144Y0448888D01*
X0343019Y0449515D01*
X0342625Y0450105D01*
X0342035Y0450500D01*
X0341339Y0450638D01*
X0340642Y0450500D01*
X0340052Y0450105D01*
X0339658Y0449515D01*
X0339519Y0448819D01*
X0339658Y0448123D01*
X0340052Y0447533D01*
X0340642Y0447138D01*
X0341270Y0447013D01*
X0353984Y0434299D01*
X0354414Y0434012D01*
X0354921Y0433911D01*
X0397630D01*
X0398162Y0433556D01*
X0398789Y0433431D01*
X0401784Y0430436D01*
X0401785Y0430431D01*
Y0429417D01*
X0401430Y0428885D01*
X0401291Y0428189D01*
X0401398Y0427652D01*
X0401101Y0427152D01*
X0362165D01*
X0361658Y0427051D01*
X0361228Y0426764D01*
X0334065Y0399601D01*
X0333438Y0399476D01*
X0332847Y0399082D01*
X0332453Y0398492D01*
X0332315Y0397795D01*
X0332453Y0397099D01*
X0332847Y0396509D01*
X0333438Y0396115D01*
X0334134Y0395976D01*
X0334830Y0396115D01*
X0335420Y0396509D01*
X0335815Y0397099D01*
X0335939Y0397726D01*
X0362714Y0424501D01*
X0389139D01*
X0389330Y0424039D01*
X0373118Y0407827D01*
X0372831Y0407397D01*
X0372730Y0406890D01*
Y0390986D01*
X0372831Y0390479D01*
X0373118Y0390049D01*
X0383631Y0379535D01*
X0384062Y0379248D01*
X0384569Y0379147D01*
X0387679D01*
X0389218Y0377608D01*
X0389343Y0376981D01*
X0389737Y0376391D01*
X0390327Y0375996D01*
X0391024Y0375858D01*
X0391720Y0375996D01*
X0392310Y0376391D01*
X0392704Y0376981D01*
X0392818Y0377553D01*
X0393171Y0377726D01*
X0393328Y0377750D01*
X0405519Y0365559D01*
X0405877Y0365320D01*
Y0363543D01*
X0405939Y0363231D01*
X0406116Y0362966D01*
X0406381Y0362790D01*
X0406693Y0362728D01*
X0418504D01*
X0418816Y0362790D01*
X0419081Y0362966D01*
X0419257Y0363231D01*
X0419320Y0363543D01*
Y0369449D01*
X0419257Y0369761D01*
X0419081Y0370026D01*
X0418816Y0370202D01*
X0418504Y0370265D01*
X0406693D01*
X0406381Y0370202D01*
X0406116Y0370026D01*
X0405939Y0369761D01*
X0405912Y0369623D01*
X0405413Y0369414D01*
X0391618Y0383210D01*
X0391188Y0383497D01*
X0390680Y0383598D01*
X0385863D01*
X0377192Y0392270D01*
Y0405606D01*
X0392487Y0420901D01*
X0412751D01*
X0413258Y0421002D01*
X0413688Y0421289D01*
X0420325Y0427926D01*
X0427425D01*
X0427576Y0427426D01*
X0427571Y0427423D01*
X0419791Y0419643D01*
X0419281Y0419756D01*
X0419235Y0419794D01*
X0419081Y0420026D01*
X0418816Y0420202D01*
X0418504Y0420264D01*
X0406693D01*
X0406381Y0420202D01*
X0406116Y0420026D01*
X0405939Y0419761D01*
X0405877Y0419449D01*
Y0413543D01*
X0405939Y0413231D01*
X0406116Y0412966D01*
X0406381Y0412790D01*
X0406693Y0412728D01*
X0418504D01*
X0418816Y0412790D01*
X0419081Y0412966D01*
X0419257Y0413231D01*
X0419320Y0413543D01*
Y0414151D01*
X0419961D01*
X0420858Y0414329D01*
X0421619Y0414838D01*
X0430200Y0423420D01*
X0441890D01*
X0442787Y0423598D01*
X0443548Y0424106D01*
X0444056Y0424867D01*
X0444235Y0425765D01*
X0444056Y0426662D01*
X0443548Y0427423D01*
X0442787Y0427931D01*
X0441890Y0428110D01*
X0431086D01*
X0430899Y0428460D01*
X0430865Y0428610D01*
X0430992Y0429252D01*
X0430894Y0429749D01*
X0431208Y0430249D01*
X0434055D01*
X0434562Y0430350D01*
X0434992Y0430638D01*
X0436651Y0432297D01*
X0437158D01*
X0437690Y0431941D01*
X0438386Y0431803D01*
X0439082Y0431941D01*
X0439672Y0432336D01*
X0440067Y0432926D01*
X0440205Y0433622D01*
X0440114Y0434081D01*
X0440447Y0434581D01*
X0450710D01*
X0459299Y0425992D01*
X0459729Y0425705D01*
X0460236Y0425604D01*
X0524394D01*
X0524684Y0425104D01*
X0524666Y0425072D01*
X0524633Y0425055D01*
X0483835D01*
X0483328Y0424954D01*
X0482898Y0424666D01*
X0469044Y0410813D01*
X0468353D01*
X0467821Y0411168D01*
X0467125Y0411307D01*
X0466429Y0411168D01*
X0465839Y0410774D01*
X0465444Y0410184D01*
X0465306Y0409487D01*
X0465444Y0408791D01*
X0465839Y0408201D01*
X0466429Y0407807D01*
X0466692Y0407244D01*
X0466606Y0406811D01*
X0466745Y0406115D01*
X0467139Y0405525D01*
X0467729Y0405130D01*
X0467812Y0405114D01*
X0467958Y0404635D01*
X0462776Y0399454D01*
X0462690Y0399437D01*
X0462099Y0399042D01*
X0461705Y0398452D01*
X0461567Y0397756D01*
X0461705Y0397060D01*
X0462099Y0396469D01*
X0462690Y0396075D01*
X0463386Y0395937D01*
X0464082Y0396075D01*
X0464672Y0396469D01*
X0465067Y0397060D01*
X0465205Y0397756D01*
X0465142Y0398071D01*
X0485588Y0418516D01*
X0498950D01*
X0498966Y0418478D01*
X0499034Y0418016D01*
X0498536Y0417684D01*
X0498142Y0417094D01*
X0498004Y0416398D01*
X0498142Y0415701D01*
X0498536Y0415111D01*
X0499127Y0414717D01*
X0499823Y0414578D01*
X0500039Y0414621D01*
X0501897Y0412764D01*
X0502327Y0412476D01*
X0502835Y0412375D01*
X0542483D01*
X0564052Y0390806D01*
X0564482Y0390519D01*
X0564989Y0390418D01*
X0583456D01*
X0589879Y0383995D01*
X0590309Y0383708D01*
X0590816Y0383607D01*
X0620227D01*
X0623012Y0380823D01*
X0623251Y0380662D01*
Y0380382D01*
X0623313Y0380070D01*
X0623490Y0379805D01*
Y0379384D01*
X0623313Y0379119D01*
X0623251Y0378807D01*
Y0376051D01*
X0623313Y0375739D01*
X0623490Y0375474D01*
X0623755Y0375298D01*
X0624067Y0375236D01*
X0631941D01*
X0632253Y0375298D01*
X0632518Y0375474D01*
X0632694Y0375739D01*
X0632757Y0376051D01*
Y0378807D01*
X0632694Y0379119D01*
X0632518Y0379384D01*
Y0379805D01*
X0632694Y0380070D01*
X0632757Y0380382D01*
Y0383138D01*
X0632694Y0383450D01*
X0632518Y0383715D01*
Y0384136D01*
X0632694Y0384401D01*
X0632757Y0384713D01*
Y0387469D01*
X0632694Y0387781D01*
X0632518Y0388045D01*
Y0388467D01*
X0632694Y0388731D01*
X0632757Y0389043D01*
Y0391799D01*
X0632694Y0392111D01*
X0632518Y0392376D01*
Y0392797D01*
X0632694Y0393062D01*
X0632757Y0393374D01*
Y0396130D01*
X0632694Y0396442D01*
X0632518Y0396707D01*
X0632253Y0396884D01*
X0631941Y0396946D01*
X0624067D01*
X0623779Y0396888D01*
X0619041Y0401626D01*
X0619233Y0402088D01*
X0623251D01*
Y0402035D01*
X0623313Y0401723D01*
X0623490Y0401459D01*
X0623755Y0401282D01*
X0624067Y0401220D01*
X0631941D01*
X0632253Y0401282D01*
X0632518Y0401459D01*
X0632694Y0401723D01*
X0632757Y0402035D01*
Y0404791D01*
X0632694Y0405103D01*
X0632518Y0405368D01*
Y0405789D01*
X0632694Y0406054D01*
X0632757Y0406366D01*
Y0409122D01*
X0632694Y0409434D01*
X0632518Y0409699D01*
X0632253Y0409876D01*
X0631941Y0409938D01*
X0624067D01*
X0623755Y0409876D01*
X0623490Y0409699D01*
X0623313Y0409434D01*
X0623251Y0409122D01*
Y0406366D01*
X0623313Y0406054D01*
X0623490Y0405789D01*
Y0405368D01*
X0623313Y0405103D01*
X0623251Y0404791D01*
Y0404739D01*
X0618474D01*
X0610780Y0412433D01*
X0610350Y0412721D01*
X0609842Y0412821D01*
X0563110D01*
X0562603Y0412721D01*
X0562173Y0412433D01*
X0558900Y0409160D01*
X0558708D01*
X0558177Y0409515D01*
X0557480Y0409654D01*
X0556784Y0409515D01*
X0556194Y0409121D01*
X0555800Y0408531D01*
X0555661Y0407835D01*
X0555800Y0407138D01*
X0556194Y0406548D01*
X0556784Y0406154D01*
X0557480Y0406015D01*
X0558177Y0406154D01*
X0558708Y0406509D01*
X0559449D01*
X0559956Y0406610D01*
X0559983Y0406628D01*
X0560470Y0406485D01*
X0560561Y0406413D01*
X0560918Y0405879D01*
X0561509Y0405485D01*
X0562205Y0405346D01*
X0562901Y0405485D01*
X0563491Y0405879D01*
X0563885Y0406469D01*
X0564010Y0407096D01*
X0565284Y0408371D01*
X0608548D01*
X0623251Y0393667D01*
Y0393374D01*
X0623273Y0393266D01*
X0622995Y0392829D01*
X0622909Y0392766D01*
X0603122D01*
X0602225Y0392588D01*
X0601464Y0392079D01*
X0600955Y0391319D01*
X0600777Y0390421D01*
X0600955Y0389524D01*
X0601464Y0388763D01*
X0601771Y0388558D01*
X0601619Y0388058D01*
X0592110D01*
X0585688Y0394481D01*
X0585257Y0394768D01*
X0584750Y0394869D01*
X0566284D01*
X0544714Y0416438D01*
X0544284Y0416725D01*
X0543777Y0416826D01*
X0508903D01*
X0508885Y0416917D01*
X0508491Y0417507D01*
X0507901Y0417901D01*
X0507323Y0418016D01*
X0507372Y0418516D01*
X0562834D01*
X0563341Y0418617D01*
X0563771Y0418904D01*
X0573436Y0428569D01*
X0573578Y0428588D01*
X0574491Y0428966D01*
X0575275Y0429568D01*
X0575877Y0430351D01*
X0576255Y0431264D01*
X0576384Y0432244D01*
X0576255Y0433224D01*
X0575877Y0434137D01*
X0575275Y0434921D01*
X0574491Y0435522D01*
X0573578Y0435900D01*
X0572598Y0436029D01*
X0571619Y0435900D01*
X0570706Y0435522D01*
X0569922Y0434921D01*
X0569320Y0434137D01*
X0568942Y0433224D01*
X0568813Y0432244D01*
X0568942Y0431264D01*
X0569320Y0430351D01*
X0569922Y0429568D01*
X0570053Y0429467D01*
X0570086Y0428968D01*
X0562285Y0421167D01*
X0554404D01*
X0554212Y0421629D01*
X0561302Y0428719D01*
X0561619Y0428588D01*
X0562598Y0428459D01*
X0563578Y0428588D01*
X0564491Y0428966D01*
X0565275Y0429568D01*
X0565876Y0430351D01*
X0566255Y0431264D01*
X0566384Y0432244D01*
X0566255Y0433224D01*
X0565876Y0434137D01*
X0565275Y0434921D01*
X0564491Y0435522D01*
X0563578Y0435900D01*
X0562598Y0436029D01*
X0561619Y0435900D01*
X0560706Y0435522D01*
X0559922Y0434921D01*
X0559320Y0434137D01*
X0558942Y0433224D01*
X0558813Y0432244D01*
X0558942Y0431264D01*
X0559281Y0430447D01*
X0552089Y0423255D01*
X0527672D01*
X0527481Y0423716D01*
X0532267Y0428503D01*
X0532598Y0428459D01*
X0533578Y0428588D01*
X0534491Y0428966D01*
X0535275Y0429568D01*
X0535877Y0430351D01*
X0536255Y0431264D01*
X0536384Y0432244D01*
X0536255Y0433224D01*
X0535877Y0434137D01*
X0535275Y0434921D01*
X0534491Y0435522D01*
X0533578Y0435900D01*
X0532598Y0436029D01*
X0531619Y0435900D01*
X0530706Y0435522D01*
X0529922Y0434921D01*
X0529320Y0434137D01*
X0529109Y0433626D01*
X0528609Y0433726D01*
Y0435435D01*
X0530077Y0436903D01*
X0546026D01*
X0549177Y0433751D01*
X0548942Y0433184D01*
X0548813Y0432205D01*
X0548942Y0431225D01*
X0549320Y0430312D01*
X0549922Y0429528D01*
X0550706Y0428927D01*
X0551619Y0428549D01*
X0552598Y0428420D01*
X0553578Y0428549D01*
X0554491Y0428927D01*
X0555275Y0429528D01*
X0555876Y0430312D01*
X0556255Y0431225D01*
X0556384Y0432205D01*
X0556255Y0433184D01*
X0555876Y0434097D01*
X0555275Y0434881D01*
X0554491Y0435483D01*
X0553578Y0435861D01*
X0552598Y0435990D01*
X0551619Y0435861D01*
X0551052Y0435626D01*
X0547512Y0439166D01*
X0547082Y0439453D01*
X0546575Y0439554D01*
X0529528D01*
X0529020Y0439453D01*
X0528590Y0439166D01*
X0526346Y0436922D01*
X0526059Y0436491D01*
X0525958Y0435984D01*
Y0434852D01*
X0525458Y0434682D01*
X0525275Y0434921D01*
X0524491Y0435522D01*
X0523578Y0435900D01*
X0522598Y0436029D01*
X0521619Y0435900D01*
X0520706Y0435522D01*
X0519922Y0434921D01*
X0519320Y0434137D01*
X0518942Y0433224D01*
X0518813Y0432244D01*
X0518942Y0431264D01*
X0519320Y0430351D01*
X0519922Y0429568D01*
X0520706Y0428966D01*
X0521216Y0428755D01*
X0521117Y0428255D01*
X0514080D01*
X0513980Y0428755D01*
X0514491Y0428966D01*
X0515275Y0429568D01*
X0515876Y0430351D01*
X0516255Y0431264D01*
X0516384Y0432244D01*
X0516255Y0433224D01*
X0515876Y0434137D01*
X0515275Y0434921D01*
X0514491Y0435522D01*
X0513578Y0435900D01*
X0512598Y0436029D01*
X0511619Y0435900D01*
X0510706Y0435522D01*
X0509922Y0434921D01*
X0509320Y0434137D01*
X0508942Y0433224D01*
X0508813Y0432244D01*
X0508942Y0431264D01*
X0509320Y0430351D01*
X0509922Y0429568D01*
X0510706Y0428966D01*
X0511216Y0428755D01*
X0511117Y0428255D01*
X0504080D01*
X0503980Y0428755D01*
X0504491Y0428966D01*
X0505275Y0429568D01*
X0505876Y0430351D01*
X0506255Y0431264D01*
X0506384Y0432244D01*
X0506255Y0433224D01*
X0505876Y0434137D01*
X0505275Y0434921D01*
X0504491Y0435522D01*
X0503578Y0435900D01*
X0502598Y0436029D01*
X0501619Y0435900D01*
X0500706Y0435522D01*
X0499922Y0434921D01*
X0499320Y0434137D01*
X0498942Y0433224D01*
X0498813Y0432244D01*
X0498942Y0431264D01*
X0499320Y0430351D01*
X0499922Y0429568D01*
X0500706Y0428966D01*
X0501216Y0428755D01*
X0501117Y0428255D01*
X0494080D01*
X0493980Y0428755D01*
X0494491Y0428966D01*
X0495275Y0429568D01*
X0495877Y0430351D01*
X0496255Y0431264D01*
X0496384Y0432244D01*
X0496255Y0433224D01*
X0495877Y0434137D01*
X0495275Y0434921D01*
X0494491Y0435522D01*
X0493578Y0435900D01*
X0492598Y0436029D01*
X0491619Y0435900D01*
X0490706Y0435522D01*
X0489922Y0434921D01*
X0489320Y0434137D01*
X0488942Y0433224D01*
X0488813Y0432244D01*
X0488942Y0431264D01*
X0489320Y0430351D01*
X0489922Y0429568D01*
X0490706Y0428966D01*
X0491216Y0428755D01*
X0491117Y0428255D01*
X0484080D01*
X0483980Y0428755D01*
X0484491Y0428966D01*
X0485275Y0429568D01*
X0485877Y0430351D01*
X0486255Y0431264D01*
X0486384Y0432244D01*
X0486255Y0433224D01*
X0485877Y0434137D01*
X0485275Y0434921D01*
X0484491Y0435522D01*
X0483578Y0435900D01*
X0482598Y0436029D01*
X0481619Y0435900D01*
X0480706Y0435522D01*
X0479922Y0434921D01*
X0479320Y0434137D01*
X0478942Y0433224D01*
X0478813Y0432244D01*
X0478942Y0431264D01*
X0479320Y0430351D01*
X0479922Y0429568D01*
X0480706Y0428966D01*
X0481216Y0428755D01*
X0481117Y0428255D01*
X0474080D01*
X0473980Y0428755D01*
X0474491Y0428966D01*
X0475275Y0429568D01*
X0475877Y0430351D01*
X0476255Y0431264D01*
X0476384Y0432244D01*
X0476255Y0433224D01*
X0475877Y0434137D01*
X0475275Y0434921D01*
X0474491Y0435522D01*
X0473578Y0435900D01*
X0472598Y0436029D01*
X0471887Y0435936D01*
X0471806Y0436429D01*
X0472121Y0436492D01*
X0472551Y0436779D01*
X0476956Y0441184D01*
X0477524Y0440948D01*
X0478504Y0440819D01*
X0479484Y0440948D01*
X0480398Y0441327D01*
X0481182Y0441928D01*
X0481784Y0442713D01*
X0482162Y0443626D01*
X0482291Y0444606D01*
X0482162Y0445586D01*
X0481927Y0446155D01*
X0484172Y0448400D01*
X0587806D01*
Y0442520D01*
X0587868Y0442207D01*
X0588045Y0441943D01*
X0588310Y0441766D01*
X0588622Y0441704D01*
X0594527D01*
X0594840Y0441766D01*
X0595104Y0441943D01*
X0595281Y0442207D01*
X0595343Y0442520D01*
Y0448400D01*
X0596773D01*
X0598153Y0447019D01*
X0597919Y0446452D01*
X0597790Y0445472D01*
X0597919Y0444493D01*
X0598297Y0443580D01*
X0598898Y0442796D01*
X0599682Y0442194D01*
X0600595Y0441816D01*
X0601575Y0441687D01*
X0602555Y0441816D01*
X0603467Y0442194D01*
X0604251Y0442796D01*
X0604853Y0443580D01*
X0605231Y0444493D01*
X0605360Y0445472D01*
X0605231Y0446452D01*
X0604853Y0447365D01*
X0604251Y0448149D01*
X0603467Y0448750D01*
X0602555Y0449129D01*
X0601575Y0449258D01*
X0600595Y0449129D01*
X0600028Y0448894D01*
X0599184Y0449738D01*
X0599375Y0450200D01*
X0604973D01*
X0608153Y0447019D01*
X0607919Y0446452D01*
X0607790Y0445472D01*
X0607919Y0444493D01*
X0608297Y0443580D01*
X0608898Y0442796D01*
X0609682Y0442194D01*
X0610595Y0441816D01*
X0611575Y0441687D01*
X0612555Y0441816D01*
X0613467Y0442194D01*
X0614251Y0442796D01*
X0614853Y0443580D01*
X0615231Y0444493D01*
X0615360Y0445472D01*
X0615231Y0446452D01*
X0614853Y0447365D01*
X0614251Y0448149D01*
X0613467Y0448750D01*
X0612555Y0449129D01*
X0611575Y0449258D01*
X0610595Y0449129D01*
X0610028Y0448894D01*
X0606702Y0452220D01*
X0606909Y0452720D01*
X0630798D01*
X0632433Y0452536D01*
D02*
G37*
%LPC*%
G36*
X0508378Y0446819D02*
X0500678D01*
X0500625Y0446808D01*
X0500571Y0446812D01*
X0499527Y0446674D01*
X0499451Y0446648D01*
X0499425Y0446645D01*
X0499400Y0446635D01*
X0499321Y0446619D01*
X0498348Y0446216D01*
X0498281Y0446171D01*
X0498257Y0446161D01*
X0498236Y0446145D01*
X0498164Y0446110D01*
X0497328Y0445469D01*
X0497275Y0445408D01*
X0497254Y0445392D01*
X0497238Y0445371D01*
X0497178Y0445318D01*
X0496536Y0444482D01*
X0496515Y0444438D01*
X0496453Y0444357D01*
X0495975Y0443205D01*
X0495813Y0441968D01*
X0495975Y0440732D01*
X0496453Y0439580D01*
X0496515Y0439499D01*
X0496536Y0439455D01*
X0497178Y0438619D01*
X0497238Y0438566D01*
X0497254Y0438545D01*
X0497275Y0438529D01*
X0497328Y0438469D01*
X0498164Y0437827D01*
X0498236Y0437792D01*
X0498257Y0437776D01*
X0498281Y0437766D01*
X0498348Y0437721D01*
X0499321Y0437318D01*
X0499400Y0437302D01*
X0499425Y0437292D01*
X0499451Y0437289D01*
X0499527Y0437263D01*
X0500571Y0437125D01*
X0500625Y0437129D01*
X0500678Y0437118D01*
X0508378D01*
X0508430Y0437129D01*
X0508484Y0437125D01*
X0509528Y0437263D01*
X0509604Y0437289D01*
X0509631Y0437292D01*
X0509655Y0437302D01*
X0509734Y0437318D01*
X0510707Y0437721D01*
X0510774Y0437766D01*
X0510798Y0437776D01*
X0510819Y0437792D01*
X0510891Y0437827D01*
X0511727Y0438469D01*
X0511780Y0438529D01*
X0511801Y0438545D01*
X0511817Y0438566D01*
X0511877Y0438619D01*
X0512519Y0439455D01*
X0512540Y0439499D01*
X0512602Y0439580D01*
X0513080Y0440732D01*
X0513242Y0441968D01*
X0513080Y0443205D01*
X0512602Y0444357D01*
X0512541Y0444438D01*
X0512519Y0444482D01*
X0511877Y0445318D01*
X0511817Y0445371D01*
X0511801Y0445392D01*
X0511780Y0445408D01*
X0511727Y0445469D01*
X0510891Y0446110D01*
X0510819Y0446145D01*
X0510798Y0446161D01*
X0510774Y0446171D01*
X0510707Y0446216D01*
X0509734Y0446619D01*
X0509655Y0446635D01*
X0509631Y0446645D01*
X0509604Y0446648D01*
X0509528Y0446674D01*
X0508484Y0446812D01*
X0508430Y0446808D01*
X0508378Y0446819D01*
D02*
G37*
G36*
X0426685D02*
X0418985D01*
X0418932Y0446808D01*
X0418878Y0446812D01*
X0417834Y0446674D01*
X0417758Y0446648D01*
X0417732Y0446645D01*
X0417707Y0446635D01*
X0417628Y0446619D01*
X0416655Y0446216D01*
X0416588Y0446171D01*
X0416564Y0446161D01*
X0416543Y0446145D01*
X0416471Y0446110D01*
X0415635Y0445469D01*
X0415582Y0445408D01*
X0415561Y0445392D01*
X0415545Y0445371D01*
X0415485Y0445318D01*
X0414844Y0444482D01*
X0414822Y0444438D01*
X0414760Y0444357D01*
X0414283Y0443205D01*
X0414120Y0441968D01*
X0414283Y0440732D01*
X0414760Y0439580D01*
X0414822Y0439499D01*
X0414844Y0439455D01*
X0415485Y0438619D01*
X0415545Y0438566D01*
X0415561Y0438545D01*
X0415582Y0438529D01*
X0415635Y0438469D01*
X0416471Y0437827D01*
X0416543Y0437792D01*
X0416564Y0437776D01*
X0416588Y0437766D01*
X0416655Y0437721D01*
X0417628Y0437318D01*
X0417707Y0437302D01*
X0417732Y0437292D01*
X0417758Y0437289D01*
X0417834Y0437263D01*
X0418878Y0437125D01*
X0418932Y0437129D01*
X0418985Y0437118D01*
X0426685D01*
X0426737Y0437129D01*
X0426791Y0437125D01*
X0427835Y0437263D01*
X0427911Y0437289D01*
X0427938Y0437292D01*
X0427962Y0437302D01*
X0428041Y0437318D01*
X0429014Y0437721D01*
X0429081Y0437766D01*
X0429105Y0437776D01*
X0429126Y0437792D01*
X0429199Y0437827D01*
X0430034Y0438469D01*
X0430087Y0438529D01*
X0430108Y0438545D01*
X0430124Y0438566D01*
X0430185Y0438619D01*
X0430826Y0439455D01*
X0430848Y0439499D01*
X0430909Y0439580D01*
X0431387Y0440732D01*
X0431550Y0441968D01*
X0431387Y0443205D01*
X0430909Y0444357D01*
X0430848Y0444438D01*
X0430826Y0444482D01*
X0430185Y0445318D01*
X0430124Y0445371D01*
X0430108Y0445392D01*
X0430087Y0445408D01*
X0430034Y0445469D01*
X0429199Y0446110D01*
X0429126Y0446145D01*
X0429105Y0446161D01*
X0429081Y0446171D01*
X0429014Y0446216D01*
X0428041Y0446619D01*
X0427962Y0446635D01*
X0427938Y0446645D01*
X0427911Y0446648D01*
X0427835Y0446674D01*
X0426791Y0446812D01*
X0426737Y0446808D01*
X0426685Y0446819D01*
D02*
G37*
G36*
X0612598Y0436029D02*
X0611619Y0435900D01*
X0610706Y0435522D01*
X0609922Y0434921D01*
X0609320Y0434137D01*
X0608942Y0433224D01*
X0608813Y0432244D01*
X0608942Y0431264D01*
X0609320Y0430351D01*
X0609922Y0429568D01*
X0610706Y0428966D01*
X0611619Y0428588D01*
X0612598Y0428459D01*
X0613578Y0428588D01*
X0614491Y0428966D01*
X0615275Y0429568D01*
X0615876Y0430351D01*
X0616255Y0431264D01*
X0616384Y0432244D01*
X0616255Y0433224D01*
X0615876Y0434137D01*
X0615275Y0434921D01*
X0614491Y0435522D01*
X0613578Y0435900D01*
X0612598Y0436029D01*
D02*
G37*
G36*
X0602598D02*
X0601619Y0435900D01*
X0600706Y0435522D01*
X0599922Y0434921D01*
X0599320Y0434137D01*
X0598942Y0433224D01*
X0598813Y0432244D01*
X0598942Y0431264D01*
X0599320Y0430351D01*
X0599922Y0429568D01*
X0600706Y0428966D01*
X0601619Y0428588D01*
X0602598Y0428459D01*
X0603578Y0428588D01*
X0604491Y0428966D01*
X0605275Y0429568D01*
X0605876Y0430351D01*
X0606255Y0431264D01*
X0606384Y0432244D01*
X0606255Y0433224D01*
X0605876Y0434137D01*
X0605275Y0434921D01*
X0604491Y0435522D01*
X0603578Y0435900D01*
X0602598Y0436029D01*
D02*
G37*
G36*
X0592598D02*
X0591619Y0435900D01*
X0590706Y0435522D01*
X0589922Y0434921D01*
X0589320Y0434137D01*
X0588942Y0433224D01*
X0588813Y0432244D01*
X0588942Y0431264D01*
X0589320Y0430351D01*
X0589922Y0429568D01*
X0590706Y0428966D01*
X0591619Y0428588D01*
X0592598Y0428459D01*
X0593578Y0428588D01*
X0594491Y0428966D01*
X0595275Y0429568D01*
X0595877Y0430351D01*
X0596255Y0431264D01*
X0596384Y0432244D01*
X0596255Y0433224D01*
X0595877Y0434137D01*
X0595275Y0434921D01*
X0594491Y0435522D01*
X0593578Y0435900D01*
X0592598Y0436029D01*
D02*
G37*
G36*
X0542598D02*
X0541619Y0435900D01*
X0540706Y0435522D01*
X0539922Y0434921D01*
X0539320Y0434137D01*
X0538942Y0433224D01*
X0538813Y0432244D01*
X0538942Y0431264D01*
X0539320Y0430351D01*
X0539922Y0429568D01*
X0540706Y0428966D01*
X0541619Y0428588D01*
X0542598Y0428459D01*
X0543578Y0428588D01*
X0544491Y0428966D01*
X0545275Y0429568D01*
X0545877Y0430351D01*
X0546255Y0431264D01*
X0546384Y0432244D01*
X0546255Y0433224D01*
X0545877Y0434137D01*
X0545275Y0434921D01*
X0544491Y0435522D01*
X0543578Y0435900D01*
X0542598Y0436029D01*
D02*
G37*
G36*
X0589173Y0426229D02*
X0588477Y0426090D01*
X0587887Y0425696D01*
X0587493Y0425106D01*
X0587354Y0424409D01*
X0587493Y0423713D01*
X0587887Y0423123D01*
X0588477Y0422729D01*
X0589104Y0422604D01*
X0589457Y0422252D01*
X0589887Y0421964D01*
X0590394Y0421864D01*
X0590394Y0421864D01*
X0608142D01*
X0608674Y0421508D01*
X0609370Y0421370D01*
X0610066Y0421508D01*
X0610656Y0421903D01*
X0611051Y0422493D01*
X0611189Y0423189D01*
X0611051Y0423885D01*
X0610656Y0424475D01*
X0610066Y0424870D01*
X0609370Y0425008D01*
X0608674Y0424870D01*
X0608142Y0424514D01*
X0590972D01*
X0590854Y0425106D01*
X0590460Y0425696D01*
X0589869Y0426090D01*
X0589173Y0426229D01*
D02*
G37*
G36*
X0418504Y0390265D02*
X0406693D01*
X0406381Y0390202D01*
X0406116Y0390026D01*
X0405939Y0389761D01*
X0405877Y0389449D01*
Y0388333D01*
X0405047D01*
X0404515Y0388689D01*
X0403819Y0388827D01*
X0403123Y0388689D01*
X0402532Y0388294D01*
X0402138Y0387704D01*
X0402000Y0387008D01*
X0402138Y0386312D01*
X0402532Y0385721D01*
X0403123Y0385327D01*
X0403819Y0385189D01*
X0404515Y0385327D01*
X0405047Y0385682D01*
X0405877D01*
Y0383543D01*
X0405939Y0383231D01*
X0406116Y0382966D01*
X0406381Y0382790D01*
X0406693Y0382728D01*
X0418504D01*
X0418816Y0382790D01*
X0419081Y0382966D01*
X0419257Y0383231D01*
X0419320Y0383543D01*
Y0386110D01*
X0419396Y0386496D01*
X0419320Y0386882D01*
Y0389449D01*
X0419257Y0389761D01*
X0419081Y0390026D01*
X0418816Y0390202D01*
X0418504Y0390265D01*
D02*
G37*
G36*
X0391339Y0411548D02*
X0389360Y0411392D01*
X0387429Y0410928D01*
X0385596Y0410169D01*
X0383903Y0409132D01*
X0382394Y0407842D01*
X0381104Y0406333D01*
X0380067Y0404641D01*
X0379308Y0402807D01*
X0378844Y0400877D01*
X0378689Y0398898D01*
X0378844Y0396919D01*
X0379308Y0394989D01*
X0380067Y0393155D01*
X0381104Y0391462D01*
X0382394Y0389953D01*
X0383903Y0388664D01*
X0385596Y0387626D01*
X0387429Y0386867D01*
X0389360Y0386403D01*
X0391339Y0386248D01*
X0393318Y0386403D01*
X0395248Y0386867D01*
X0397082Y0387626D01*
X0398774Y0388664D01*
X0400283Y0389953D01*
X0401573Y0391462D01*
X0402610Y0393155D01*
X0403370Y0394989D01*
X0403833Y0396919D01*
X0403989Y0398898D01*
X0403833Y0400877D01*
X0403370Y0402807D01*
X0402610Y0404641D01*
X0401573Y0406333D01*
X0400283Y0407842D01*
X0398774Y0409132D01*
X0397082Y0410169D01*
X0395248Y0410928D01*
X0393318Y0411392D01*
X0391339Y0411548D01*
D02*
G37*
G36*
X0536221Y0411469D02*
X0534242Y0411313D01*
X0532311Y0410850D01*
X0530478Y0410090D01*
X0528785Y0409053D01*
X0527276Y0407764D01*
X0525986Y0406254D01*
X0524949Y0404562D01*
X0524190Y0402728D01*
X0523726Y0400798D01*
X0523570Y0398819D01*
X0523726Y0396840D01*
X0524190Y0394910D01*
X0524949Y0393076D01*
X0525986Y0391383D01*
X0527276Y0389874D01*
X0528785Y0388585D01*
X0530478Y0387548D01*
X0532311Y0386788D01*
X0534242Y0386325D01*
X0536221Y0386169D01*
X0538199Y0386325D01*
X0540130Y0386788D01*
X0541963Y0387548D01*
X0543656Y0388585D01*
X0545165Y0389874D01*
X0546455Y0391383D01*
X0547492Y0393076D01*
X0548251Y0394910D01*
X0548715Y0396840D01*
X0548871Y0398819D01*
X0548715Y0400798D01*
X0548251Y0402728D01*
X0547492Y0404562D01*
X0546455Y0406254D01*
X0545165Y0407764D01*
X0543656Y0409053D01*
X0541963Y0410090D01*
X0540130Y0410850D01*
X0538199Y0411313D01*
X0536221Y0411469D01*
D02*
G37*
G36*
X0418504Y0380264D02*
X0406693D01*
X0406381Y0380202D01*
X0406116Y0380026D01*
X0405939Y0379761D01*
X0405877Y0379449D01*
Y0378924D01*
X0403275D01*
X0402743Y0379279D01*
X0402047Y0379418D01*
X0401351Y0379279D01*
X0400761Y0378885D01*
X0400366Y0378295D01*
X0400228Y0377598D01*
X0400366Y0376902D01*
X0400761Y0376312D01*
X0401351Y0375918D01*
X0402047Y0375779D01*
X0402743Y0375918D01*
X0403275Y0376273D01*
X0405877D01*
Y0373543D01*
X0405939Y0373231D01*
X0406116Y0372967D01*
X0406381Y0372790D01*
X0406693Y0372728D01*
X0418504D01*
X0418816Y0372790D01*
X0419081Y0372967D01*
X0419257Y0373231D01*
X0419320Y0373543D01*
Y0379449D01*
X0419257Y0379761D01*
X0419081Y0380026D01*
X0418816Y0380202D01*
X0418504Y0380264D01*
D02*
G37*
G36*
X0516850Y0385637D02*
X0515870Y0385508D01*
X0514957Y0385130D01*
X0514173Y0384528D01*
X0513571Y0383744D01*
X0513192Y0382831D01*
X0513063Y0381850D01*
X0513192Y0380870D01*
X0513571Y0379957D01*
X0514173Y0379172D01*
X0514957Y0378571D01*
X0515870Y0378192D01*
X0516850Y0378063D01*
X0517831Y0378192D01*
X0518744Y0378571D01*
X0519528Y0379172D01*
X0520130Y0379957D01*
X0520508Y0380870D01*
X0520638Y0381850D01*
X0520508Y0382831D01*
X0520130Y0383744D01*
X0519528Y0384528D01*
X0518744Y0385130D01*
X0517831Y0385508D01*
X0516850Y0385637D01*
D02*
G37*
G36*
X0580760Y0389072D02*
X0575248D01*
X0574936Y0389009D01*
X0574671Y0388833D01*
X0574495Y0388568D01*
X0574432Y0388256D01*
Y0377626D01*
X0574495Y0377314D01*
X0574671Y0377049D01*
X0574936Y0376872D01*
X0575248Y0376810D01*
X0580760D01*
X0581072Y0376872D01*
X0581337Y0377049D01*
X0581513Y0377314D01*
X0581575Y0377626D01*
Y0388256D01*
X0581513Y0388568D01*
X0581337Y0388833D01*
X0581072Y0389009D01*
X0580760Y0389072D01*
D02*
G37*
G36*
X0436221Y0385264D02*
X0424409D01*
X0424097Y0385202D01*
X0423833Y0385026D01*
X0423656Y0384761D01*
X0423594Y0384449D01*
Y0378543D01*
X0423656Y0378231D01*
X0423833Y0377966D01*
X0424097Y0377790D01*
X0424409Y0377728D01*
X0436221D01*
X0436533Y0377790D01*
X0436797Y0377966D01*
X0436974Y0378231D01*
X0437036Y0378543D01*
Y0380273D01*
X0441698D01*
X0446188Y0375783D01*
X0446173Y0375709D01*
X0446311Y0375012D01*
X0446706Y0374422D01*
X0447296Y0374028D01*
X0447992Y0373889D01*
X0448688Y0374028D01*
X0449278Y0374422D01*
X0449673Y0375012D01*
X0449811Y0375709D01*
X0449673Y0376405D01*
X0449278Y0376995D01*
X0448688Y0377389D01*
X0447992Y0377528D01*
X0447918Y0377513D01*
X0443070Y0382361D01*
X0442673Y0382626D01*
X0442205Y0382720D01*
X0437036D01*
Y0384449D01*
X0436974Y0384761D01*
X0436797Y0385026D01*
X0436533Y0385202D01*
X0436221Y0385264D01*
D02*
G37*
G36*
X0327087Y0399117D02*
X0326189Y0398938D01*
X0325428Y0398430D01*
X0324920Y0397669D01*
X0324742Y0396772D01*
Y0372953D01*
X0324920Y0372055D01*
X0325428Y0371294D01*
X0326189Y0370786D01*
X0327087Y0370608D01*
X0327984Y0370786D01*
X0328745Y0371294D01*
X0329253Y0372055D01*
X0329432Y0372953D01*
Y0396772D01*
X0329253Y0397669D01*
X0328745Y0398430D01*
X0327984Y0398938D01*
X0327087Y0399117D01*
D02*
G37*
G36*
X0436221Y0355264D02*
X0424409D01*
X0424097Y0355202D01*
X0423833Y0355026D01*
X0423656Y0354761D01*
X0423594Y0354449D01*
Y0348543D01*
X0423656Y0348231D01*
X0423833Y0347967D01*
X0424097Y0347790D01*
X0424409Y0347728D01*
X0436221D01*
X0436533Y0347790D01*
X0436797Y0347967D01*
X0436974Y0348231D01*
X0437036Y0348543D01*
Y0349151D01*
X0444961D01*
X0445858Y0349329D01*
X0446619Y0349838D01*
X0447127Y0350599D01*
X0447306Y0351496D01*
X0447127Y0352394D01*
X0446619Y0353154D01*
X0445858Y0353663D01*
X0444961Y0353841D01*
X0437036D01*
Y0354449D01*
X0436974Y0354761D01*
X0436797Y0355026D01*
X0436533Y0355202D01*
X0436221Y0355264D01*
D02*
G37*
G36*
X0572598Y0353903D02*
X0571619Y0353774D01*
X0570706Y0353396D01*
X0569922Y0352795D01*
X0569320Y0352011D01*
X0568942Y0351098D01*
X0568813Y0350118D01*
X0568942Y0349138D01*
X0569320Y0348226D01*
X0569922Y0347442D01*
X0570706Y0346840D01*
X0571619Y0346462D01*
X0572598Y0346333D01*
X0573578Y0346462D01*
X0574491Y0346840D01*
X0575275Y0347442D01*
X0575877Y0348226D01*
X0576255Y0349138D01*
X0576384Y0350118D01*
X0576255Y0351098D01*
X0575877Y0352011D01*
X0575275Y0352795D01*
X0574491Y0353396D01*
X0573578Y0353774D01*
X0572598Y0353903D01*
D02*
G37*
G36*
X0562598D02*
X0561619Y0353774D01*
X0560706Y0353396D01*
X0559922Y0352795D01*
X0559320Y0352011D01*
X0558942Y0351098D01*
X0558813Y0350118D01*
X0558942Y0349138D01*
X0559320Y0348226D01*
X0559922Y0347442D01*
X0560706Y0346840D01*
X0561619Y0346462D01*
X0562598Y0346333D01*
X0563578Y0346462D01*
X0564491Y0346840D01*
X0565275Y0347442D01*
X0565876Y0348226D01*
X0566255Y0349138D01*
X0566384Y0350118D01*
X0566255Y0351098D01*
X0565876Y0352011D01*
X0565275Y0352795D01*
X0564491Y0353396D01*
X0563578Y0353774D01*
X0562598Y0353903D01*
D02*
G37*
G36*
X0532598D02*
X0531619Y0353774D01*
X0530706Y0353396D01*
X0529922Y0352795D01*
X0529320Y0352011D01*
X0528942Y0351098D01*
X0528813Y0350118D01*
X0528942Y0349138D01*
X0529320Y0348226D01*
X0529922Y0347442D01*
X0530706Y0346840D01*
X0531619Y0346462D01*
X0532598Y0346333D01*
X0533578Y0346462D01*
X0534491Y0346840D01*
X0535275Y0347442D01*
X0535877Y0348226D01*
X0536255Y0349138D01*
X0536384Y0350118D01*
X0536255Y0351098D01*
X0535877Y0352011D01*
X0535275Y0352795D01*
X0534491Y0353396D01*
X0533578Y0353774D01*
X0532598Y0353903D01*
D02*
G37*
%LPD*%
D32*
X0388228Y0380472D02*
X0391024Y0377677D01*
X0384569Y0380472D02*
X0388228D01*
X0411496Y0377598D02*
X0412598Y0376496D01*
X0402047Y0377598D02*
X0411496D01*
X0406457Y0366496D02*
X0412598D01*
X0475423Y0451525D02*
X0605522D01*
X0611575Y0445472D01*
X0463386Y0449646D02*
X0468465Y0444567D01*
X0405079Y0449646D02*
X0463386D01*
X0468465Y0444567D02*
X0475423Y0451525D01*
X0597322Y0449725D02*
X0601575Y0445472D01*
X0478504Y0444606D02*
X0483623Y0449725D01*
X0597322D01*
X0419776Y0429252D02*
X0429173D01*
X0412751Y0422227D02*
X0419776Y0429252D01*
X0434055Y0431575D02*
X0436102Y0433622D01*
X0419554Y0431575D02*
X0434055D01*
X0436102Y0433622D02*
X0438386D01*
X0462087Y0360118D02*
Y0360669D01*
Y0360118D02*
X0462638Y0359567D01*
X0473150D02*
X0482598Y0350118D01*
X0462638Y0359567D02*
X0473150D01*
X0482508Y0368070D02*
X0492598Y0357980D01*
X0479251Y0368070D02*
X0482508D01*
X0431024Y0370787D02*
X0482336D01*
X0495199Y0357924D01*
X0623949Y0381760D02*
X0628004D01*
X0620776Y0384932D02*
X0623949Y0381760D01*
X0590816Y0384932D02*
X0620776D01*
X0584005Y0391743D02*
X0590816Y0384932D01*
X0564989Y0391743D02*
X0584005D01*
X0627362Y0386732D02*
X0628004Y0386091D01*
X0591561Y0386732D02*
X0627362D01*
X0584750Y0393543D02*
X0591561Y0386732D01*
X0543777Y0415501D02*
X0565735Y0393543D01*
X0507924Y0415501D02*
X0543777D01*
X0507205Y0416221D02*
X0507924Y0415501D01*
X0543032Y0413701D02*
X0564989Y0391743D01*
X0502835Y0413701D02*
X0543032D01*
X0500138Y0416398D02*
X0502835Y0413701D01*
X0565735Y0393543D02*
X0584750D01*
X0624777Y0394016D02*
X0627268D01*
X0609097Y0409696D02*
X0624777Y0394016D01*
X0564735Y0409696D02*
X0609097D01*
X0627268Y0394016D02*
X0628004Y0394752D01*
X0563110Y0411496D02*
X0609842D01*
X0559449Y0407835D02*
X0563110Y0411496D01*
X0557480Y0407835D02*
X0559449D01*
X0562205Y0407165D02*
X0564735Y0409696D01*
X0609842Y0411496D02*
X0617925Y0403413D01*
X0628004D01*
X0485039Y0419842D02*
X0562834D01*
X0484580Y0421929D02*
X0552638D01*
X0483835Y0423729D02*
X0525619D01*
X0463386Y0398189D02*
X0485039Y0419842D01*
X0469462Y0406811D02*
X0484580Y0421929D01*
X0469593Y0409487D02*
X0483835Y0423729D01*
X0499823Y0416398D02*
X0500138D01*
X0467125Y0409487D02*
X0469593D01*
X0468425Y0406811D02*
X0469462D01*
X0525039Y0426929D02*
X0527283Y0429173D01*
X0546575Y0438228D02*
X0552598Y0432205D01*
X0529528Y0438228D02*
X0546575D01*
X0527283Y0435984D02*
X0529528Y0438228D01*
X0527283Y0429173D02*
Y0435984D01*
X0589173Y0424409D02*
X0590394Y0423189D01*
X0609370D01*
X0463386Y0397756D02*
Y0398189D01*
X0532598Y0430709D02*
Y0432244D01*
X0525619Y0423729D02*
X0532598Y0430709D01*
X0562598Y0431890D02*
Y0432244D01*
X0552638Y0421929D02*
X0562598Y0431890D01*
X0522598Y0432244D02*
X0523543Y0433189D01*
X0416339Y0435276D02*
X0431732D01*
X0572598Y0429606D02*
Y0432244D01*
X0562834Y0419842D02*
X0572598Y0429606D01*
X0517875Y0345394D02*
X0522598Y0350118D01*
X0458936Y0345394D02*
X0517875D01*
X0341339Y0448819D02*
X0354921Y0435236D01*
X0398858D01*
X0492598Y0432244D02*
Y0432353D01*
X0442835Y0361496D02*
X0458936Y0345394D01*
X0430315Y0361496D02*
X0442835D01*
X0440945Y0391496D02*
X0453386Y0379055D01*
X0403109Y0440944D02*
X0407796Y0436257D01*
Y0428858D02*
Y0436257D01*
X0418661Y0405197D02*
X0419961Y0406496D01*
X0404055Y0431850D02*
X0405354D01*
X0403031Y0430827D02*
X0404055Y0431850D01*
X0412716Y0431653D02*
X0416339Y0435276D01*
X0403110Y0428189D02*
Y0430984D01*
X0398858Y0435236D02*
X0403110Y0430984D01*
X0334134Y0397795D02*
X0362165Y0425827D01*
X0411260D01*
X0418909Y0433476D01*
X0432478D01*
X0511142Y0350118D02*
X0512598D01*
X0532992Y0359724D02*
X0542598Y0350118D01*
X0495945Y0359724D02*
X0532992D01*
X0495199Y0357924D02*
X0503335D01*
X0511142Y0350118D01*
X0492598D02*
Y0357980D01*
X0432478Y0433476D02*
X0434909Y0435906D01*
X0431732Y0435276D02*
X0434173Y0437716D01*
X0471614D01*
X0478504Y0444606D01*
X0434909Y0435906D02*
X0451259D01*
X0460236Y0426929D01*
X0525039D01*
X0417441Y0406417D02*
X0418661Y0405197D01*
X0412756Y0396654D02*
X0442717D01*
X0412598Y0396496D02*
X0412756Y0396654D01*
X0430315Y0391496D02*
X0440945D01*
X0391192Y0424027D02*
X0412005D01*
X0419554Y0431575D01*
X0391938Y0422227D02*
X0412751D01*
X0430315Y0401496D02*
X0431496Y0402677D01*
X0450447D01*
X0477913Y0374252D02*
Y0375210D01*
X0450447Y0402677D02*
X0477913Y0375210D01*
X0449252Y0406417D02*
Y0406535D01*
X0449213Y0406496D02*
X0449252Y0406535D01*
X0419961Y0406496D02*
X0449213D01*
X0449252Y0406417D02*
X0495945Y0359724D01*
X0417244Y0387323D02*
X0418071Y0386496D01*
X0416929Y0387008D02*
X0417244Y0387323D01*
X0403819Y0387008D02*
X0416929D01*
X0374055Y0406890D02*
X0391192Y0424027D01*
X0375866Y0406155D02*
X0391938Y0422227D01*
X0374055Y0390986D02*
Y0406890D01*
X0375866Y0391721D02*
Y0406155D01*
X0374055Y0390986D02*
X0384569Y0380472D01*
X0375866Y0391721D02*
X0385314Y0382272D01*
X0390680D01*
X0406457Y0366496D01*
D33*
X0432717Y0352008D02*
X0433228Y0351496D01*
X0444961D01*
X0452835Y0359252D02*
X0458347Y0364764D01*
X0478819D01*
X0508898Y0377244D02*
Y0397126D01*
Y0375551D02*
Y0377244D01*
X0494685Y0366024D02*
X0505905Y0377244D01*
X0508898D01*
X0603122Y0390421D02*
X0628004D01*
X0530905Y0371811D02*
X0552598Y0350118D01*
X0512638Y0371811D02*
X0530905D01*
X0508898Y0375551D02*
X0512638Y0371811D01*
X0508898Y0397126D02*
X0513622Y0401850D01*
X0516811D01*
X0327087Y0372953D02*
Y0396772D01*
X0429229Y0425765D02*
X0441890D01*
X0419961Y0416496D02*
X0429229Y0425765D01*
X0430433Y0411378D02*
X0449055D01*
X0412598Y0416496D02*
X0419961D01*
D34*
X0398661Y0444882D02*
X0400214Y0443329D01*
X0403813D01*
X0442205Y0381496D02*
X0447992Y0375709D01*
X0430315Y0381496D02*
X0442205D01*
X0410512Y0428819D02*
Y0436631D01*
X0403813Y0443329D02*
X0410512Y0436631D01*
D35*
X0621575Y0445472D02*
D03*
X0611575D02*
D03*
X0601575D02*
D03*
D36*
X0591575D02*
D03*
D37*
X0478504Y0444606D02*
D03*
X0468465Y0444567D02*
D03*
X0458465D02*
D03*
X0516850Y0391850D02*
D03*
Y0381850D02*
D03*
D38*
X0448465Y0444606D02*
D03*
X0462598Y0432244D02*
D03*
X0472598D02*
D03*
X0612598D02*
D03*
X0602598D02*
D03*
X0592598D02*
D03*
X0582598D02*
D03*
X0572598D02*
D03*
X0562598D02*
D03*
X0552598Y0432205D02*
D03*
X0482598Y0432244D02*
D03*
X0492598D02*
D03*
X0502598D02*
D03*
X0512598D02*
D03*
X0542598D02*
D03*
X0532598D02*
D03*
X0522598D02*
D03*
X0572598Y0350118D02*
D03*
X0562598D02*
D03*
X0552598D02*
D03*
X0542598D02*
D03*
X0532598D02*
D03*
X0522598D02*
D03*
X0512598D02*
D03*
X0502598D02*
D03*
X0492598D02*
D03*
X0482598D02*
D03*
X0472598D02*
D03*
X0462598D02*
D03*
X0516811Y0401850D02*
D03*
D39*
X0422835Y0441968D02*
D03*
X0504528D02*
D03*
D40*
X0391339Y0398898D02*
D03*
X0536221Y0398819D02*
D03*
D41*
X0631890Y0437008D02*
D03*
X0625984Y0425197D02*
D03*
Y0354331D02*
D03*
X0620079Y0437008D02*
D03*
X0614173Y0377953D02*
D03*
Y0354331D02*
D03*
X0608267Y0437008D02*
D03*
Y0366142D02*
D03*
X0602362Y0354331D02*
D03*
X0590551Y0401575D02*
D03*
X0596456Y0389764D02*
D03*
X0590551Y0377953D02*
D03*
X0596456Y0366142D02*
D03*
X0590551Y0354331D02*
D03*
X0578740Y0425197D02*
D03*
X0584646Y0366142D02*
D03*
X0578740Y0354331D02*
D03*
X0566929Y0401575D02*
D03*
X0572834Y0366142D02*
D03*
X0566929Y0354331D02*
D03*
X0561023Y0389764D02*
D03*
X0555118Y0377953D02*
D03*
X0561023Y0366142D02*
D03*
X0555118Y0354331D02*
D03*
X0543307Y0425197D02*
D03*
X0549212Y0389764D02*
D03*
X0543307Y0377953D02*
D03*
X0549212Y0366142D02*
D03*
X0531496Y0425197D02*
D03*
Y0377953D02*
D03*
X0525590Y0389764D02*
D03*
X0519685Y0377953D02*
D03*
X0525590Y0366142D02*
D03*
X0519685Y0354331D02*
D03*
X0513779Y0437008D02*
D03*
X0507874Y0401575D02*
D03*
X0513779Y0366142D02*
D03*
X0496063Y0377953D02*
D03*
X0501968Y0366142D02*
D03*
X0490157Y0437008D02*
D03*
Y0413386D02*
D03*
X0484252Y0401575D02*
D03*
X0490157Y0389764D02*
D03*
X0484252Y0377953D02*
D03*
X0478346Y0437008D02*
D03*
Y0389764D02*
D03*
X0460630Y0401575D02*
D03*
Y0377953D02*
D03*
X0454724Y0389764D02*
D03*
Y0366142D02*
D03*
X0442913D02*
D03*
X0401575Y0354331D02*
D03*
X0395669Y0413386D02*
D03*
Y0366142D02*
D03*
X0389764Y0354331D02*
D03*
X0377953Y0377953D02*
D03*
X0383858Y0366142D02*
D03*
X0377953Y0354331D02*
D03*
X0372047Y0413386D02*
D03*
X0366142Y0401575D02*
D03*
X0372047Y0389764D02*
D03*
X0366142Y0377953D02*
D03*
X0372047Y0366142D02*
D03*
X0366142Y0354331D02*
D03*
X0354331Y0425197D02*
D03*
Y0401575D02*
D03*
X0360236Y0389764D02*
D03*
X0354331Y0377953D02*
D03*
X0360236Y0366142D02*
D03*
X0354331Y0354331D02*
D03*
X0342520Y0425197D02*
D03*
Y0401575D02*
D03*
X0348425Y0389764D02*
D03*
X0342520Y0377953D02*
D03*
X0348425Y0366142D02*
D03*
X0342520Y0354331D02*
D03*
X0336614Y0437008D02*
D03*
Y0413386D02*
D03*
X0330709Y0401575D02*
D03*
X0336614Y0389764D02*
D03*
X0330709Y0377953D02*
D03*
X0336614Y0366142D02*
D03*
X0330709Y0354331D02*
D03*
X0324803Y0437008D02*
D03*
X0318898Y0425197D02*
D03*
Y0401575D02*
D03*
X0324803Y0366142D02*
D03*
X0318898Y0354331D02*
D03*
X0312992Y0437008D02*
D03*
X0307086Y0425197D02*
D03*
Y0401575D02*
D03*
X0312992Y0389764D02*
D03*
X0307086Y0377953D02*
D03*
X0312992Y0366142D02*
D03*
X0307086Y0354331D02*
D03*
X0301181Y0437008D02*
D03*
X0295275Y0425197D02*
D03*
Y0401575D02*
D03*
X0301181Y0389764D02*
D03*
X0295275Y0377953D02*
D03*
X0301181Y0366142D02*
D03*
X0295275Y0354331D02*
D03*
X0444961Y0351496D02*
D03*
X0452835Y0359252D02*
D03*
X0462087Y0360669D02*
D03*
X0479251Y0368070D02*
D03*
X0478819Y0364764D02*
D03*
X0494685Y0366024D02*
D03*
X0562205Y0407165D02*
D03*
X0507205Y0416221D02*
D03*
X0557480Y0407835D02*
D03*
X0499823Y0416398D02*
D03*
X0467125Y0409487D02*
D03*
X0468425Y0406811D02*
D03*
X0589173Y0424409D02*
D03*
X0609370Y0423189D02*
D03*
X0463386Y0397756D02*
D03*
X0603122Y0390421D02*
D03*
X0341339Y0448819D02*
D03*
X0398661Y0444882D02*
D03*
X0405079Y0449646D02*
D03*
X0398858Y0435236D02*
D03*
X0429173Y0429252D02*
D03*
X0334134Y0397795D02*
D03*
X0327087Y0396772D02*
D03*
Y0372953D02*
D03*
X0449055Y0411378D02*
D03*
X0447992Y0375709D02*
D03*
X0453386Y0379055D02*
D03*
X0477913Y0374252D02*
D03*
X0441890Y0425765D02*
D03*
X0403109Y0440944D02*
D03*
X0412716Y0431653D02*
D03*
X0405354Y0431850D02*
D03*
X0403110Y0428189D02*
D03*
X0407717Y0428858D02*
D03*
X0410945Y0428819D02*
D03*
X0438386Y0433622D02*
D03*
X0389449Y0438307D02*
D03*
X0385669Y0438268D02*
D03*
X0393386D02*
D03*
X0381142D02*
D03*
X0417992Y0421772D02*
D03*
X0439488Y0441732D02*
D03*
X0434094Y0441890D02*
D03*
X0488779Y0443937D02*
D03*
X0391024Y0377677D02*
D03*
X0442717Y0396654D02*
D03*
X0449252Y0406535D02*
D03*
X0402047Y0377598D02*
D03*
X0403819Y0387008D02*
D03*
D42*
X0578004Y0402232D02*
D03*
Y0382941D02*
D03*
D43*
X0577610Y0370933D02*
D03*
D44*
X0626035Y0363453D02*
D03*
D45*
Y0416012D02*
D03*
D46*
X0628004Y0407744D02*
D03*
Y0403413D02*
D03*
Y0399083D02*
D03*
Y0394752D02*
D03*
Y0390421D02*
D03*
Y0386091D02*
D03*
Y0381760D02*
D03*
Y0377429D02*
D03*
D47*
X0430315Y0411496D02*
D03*
Y0401496D02*
D03*
Y0391496D02*
D03*
Y0381496D02*
D03*
Y0371496D02*
D03*
Y0361496D02*
D03*
Y0351496D02*
D03*
X0412598Y0416496D02*
D03*
Y0406496D02*
D03*
Y0396496D02*
D03*
Y0386496D02*
D03*
Y0376496D02*
D03*
Y0366496D02*
D03*
Y0356496D02*
D03*
M02*
